<?xml version="1.0" encoding="utf-8"?>
<!-- Generator: Adobe Illustrator 16.0.0, SVG Export Plug-In . SVG Version: 6.00 Build 0)  -->
<!DOCTYPE svg PUBLIC "-//W3C//DTD SVG 1.1//EN" "http://www.w3.org/Graphics/SVG/1.1/DTD/svg11.dtd">
<svg version="1.1" id="Layer_1" xmlns="http://www.w3.org/2000/svg" xmlns:xlink="http://www.w3.org/1999/xlink" x="0px" y="0px"
	 width="480px" height="280px" viewBox="-48 -40 480 280" enable-background="new -48 -40 480 280" xml:space="preserve">
<g id="Layer_2" display="none">
	<g display="inline">
		<g>
			<g id="XMLID_3_">
				<g>
					<path d="M346.07,77.32l-16.852,9.16l9.881,17.47l-17.261-0.78l-0.108,1.76l-6.271,0.17l-0.35-0.02l0.55-8.8l11.819,0.54
						l-7.199-12.74c0.029-0.09,0.06-0.19,0.08-0.29l13.358-7.26l-11.46-8.3l7.04-11.56l-14.5-1.14l-0.34-11.86l-11.729,5.37
						l-9.261-13.77l-8.75,11.25L271,41.11v13.34l-13.561,1.42l7.49,12.46l-11.791,10.32l13.021,5.79l-5.26,13.42l13.5-0.59
						l0.209,9.47h-0.141l-6.46-0.15l-0.06-2.43l-16.9,0.729l6.65-16.979L241,80.49l15.34-13.47L246.2,50.4l17.8-1.89V31.45
						l18.37,7.15l11.51-14.52l11.19,16.63l15.68-7.19l0.48,15.9l19.278,1.5l-9.45,15.54L346.07,77.32z"/>
					<path fill="#FFFFFF" d="M333.721,76.53l-13.359,7.26c0.67-2.39,1.029-4.92,1.029-7.52c0-2.61-0.359-5.13-1.029-7.52l1.898-0.52
						L333.721,76.53z"/>
					<path fill="#FFFFFF" d="M329.3,56.67l-7.04,11.56l-1.898,0.52c-2.461-8.89-9.211-16.02-17.86-19.02l0.229-0.69l11.729-5.37
						l0.34,11.86L329.3,56.67z"/>
					<path fill="#FFFFFF" d="M320.279,84.08l7.201,12.74l-11.82-0.54l-0.551,8.8l-0.359,5.77l-12.46-4.93l-7.569,11.35
						l-9.301-11.619l-10.729,4.399l-0.08-3.31l-0.211-9.47l0.131-0.15c4.979,4.5,11.568,7.229,18.779,7.229
						C306.09,104.35,316.891,95.78,320.279,84.08z"/>
					<polygon points="322.05,104.92 323.891,173.68 294.01,150.52 266.391,172.85 267.87,106.59 268.01,106.59 268.32,119.8 
						274.23,117.37 273.311,158.77 293.93,142.109 316.92,159.92 315.811,118.359 320.77,120.32 321.73,104.93 					"/>
					<polygon points="321.73,104.93 320.77,120.32 315.811,118.359 315.46,105.1 					"/>
					<path d="M320.359,68.75c0.67,2.39,1.029,4.91,1.029,7.52c0,2.6-0.359,5.13-1.029,7.52l-0.189,0.1l0.109,0.19
						c-3.391,11.7-14.189,20.27-26.971,20.27c-7.209,0-13.8-2.729-18.779-7.229c-3.76-3.38-6.609-7.78-8.109-12.75
						c-0.77-2.56-1.189-5.28-1.189-8.1c0-2.62,0.359-5.16,1.039-7.57c3.312-11.83,14.182-20.52,27.041-20.52
						c3.221,0,6.311,0.54,9.189,1.55C311.15,52.73,317.9,59.86,320.359,68.75z M314.79,76.27c0-11.85-9.63-21.49-21.479-21.49
						c-11.851,0-21.479,9.64-21.479,21.49c0,11.84,9.63,21.48,21.479,21.48S314.79,88.11,314.79,76.27z"/>
					<path d="M320.359,83.79c-0.021,0.1-0.051,0.2-0.08,0.29l-0.109-0.19L320.359,83.79z"/>
					<polygon points="315.46,105.1 315.811,118.359 304.82,114.02 295.21,128.439 283.359,113.63 274.23,117.37 274.471,106.74 
						274.609,106.74 274.689,110.05 285.42,105.65 294.721,117.27 302.29,105.92 314.75,110.85 315.109,105.08 					"/>
					<path fill="#FFFFFF" d="M293.311,54.78c11.851,0,21.479,9.64,21.479,21.49c0,11.84-9.63,21.48-21.479,21.48
						c-11.851,0-21.479-9.64-21.479-21.48C271.83,64.42,281.46,54.78,293.311,54.78z"/>
					<path fill="#FFFFFF" d="M293.471,35.27l9.26,13.77l-0.229,0.69c-2.88-1.01-5.97-1.55-9.19-1.55
						c-12.858,0-23.729,8.69-27.039,20.52l-1.34-0.37l-7.49-12.46L271,54.45V41.11l13.721,5.41L293.471,35.27z"/>
					<path fill="#FFFFFF" d="M274.529,97.12l-0.129,0.15l-13.5,0.59l5.26-13.42l0.26-0.07C267.92,89.34,270.77,93.74,274.529,97.12z
						"/>
					<polygon points="274.471,106.74 274.23,117.37 268.32,119.8 268.01,106.59 					"/>
					<path fill="#FFFFFF" d="M266.42,84.37l-0.26,0.07l-13.021-5.79l11.791-10.32l1.34,0.37c-0.681,2.41-1.039,4.95-1.039,7.57
						C265.23,79.09,265.65,81.81,266.42,84.37z"/>
				</g>
			</g>
		</g>
	</g>
	<g display="inline">
		<g>
			<g id="XMLID_4_">
				<g>
					<path d="M150.07,77.32l-16.85,9.16l9.88,17.47l-17.26-0.78l-0.11,1.76l-6.27,0.17l-0.35-0.02l0.55-8.8l11.82,0.54l-7.2-12.74
						c0.03-0.09,0.06-0.19,0.08-0.29l13.36-7.26l-11.46-8.3l7.04-11.56l-14.5-1.14l-0.34-11.86l-11.73,5.37l-9.26-13.77l-8.75,11.25
						L75,41.11v13.34l-13.56,1.42l7.49,12.46L57.14,78.65l13.02,5.79L64.9,97.86l13.5-0.59l0.21,9.47h-0.14l-6.46-0.15l-0.06-2.43
						l-16.9,0.729L61.7,87.91L45,80.49l15.34-13.47L50.2,50.4L68,48.51V31.45l18.37,7.15l11.51-14.52l11.19,16.63l15.68-7.19
						l0.48,15.9l19.28,1.5l-9.45,15.54L150.07,77.32z"/>
					<path fill="#F7CA7C" d="M137.72,76.53l-13.36,7.26c0.67-2.39,1.03-4.92,1.03-7.52c0-2.61-0.36-5.13-1.03-7.52l1.9-0.52
						L137.72,76.53z"/>
					<path fill="#F7CA7C" d="M133.3,56.67l-7.04,11.56l-1.9,0.52c-2.46-8.89-9.21-16.02-17.86-19.02l0.23-0.69l11.73-5.37
						l0.34,11.86L133.3,56.67z"/>
					<path fill="#F7CA7C" d="M124.28,84.08l7.2,12.74l-11.82-0.54l-0.55,8.8l-0.36,5.77l-12.46-4.93l-7.57,11.35l-9.3-11.619
						l-10.73,4.399l-0.08-3.31l-0.21-9.47l0.13-0.15c4.98,4.5,11.57,7.229,18.78,7.229C110.09,104.35,120.89,95.78,124.28,84.08z"/>
					<polygon points="126.05,104.92 127.89,173.68 98.01,150.52 70.39,172.85 71.87,106.59 72.01,106.59 72.32,119.8 78.23,117.37 
						77.31,158.77 97.93,142.109 120.92,159.92 119.81,118.359 124.77,120.32 125.73,104.93 					"/>
					<polygon points="125.73,104.93 124.77,120.32 119.81,118.359 119.46,105.1 					"/>
					<path d="M124.36,68.75c0.67,2.39,1.03,4.91,1.03,7.52c0,2.6-0.36,5.13-1.03,7.52l-0.19,0.1l0.11,0.19
						c-3.39,11.7-14.19,20.27-26.97,20.27c-7.21,0-13.8-2.729-18.78-7.229c-3.76-3.38-6.61-7.78-8.11-12.75
						c-0.77-2.56-1.19-5.28-1.19-8.1c0-2.62,0.36-5.16,1.04-7.57c3.31-11.83,14.18-20.52,27.04-20.52c3.22,0,6.31,0.54,9.19,1.55
						C115.15,52.73,121.9,59.86,124.36,68.75z M118.79,76.27c0-11.85-9.63-21.49-21.48-21.49s-21.48,9.64-21.48,21.49
						c0,11.84,9.63,21.48,21.48,21.48S118.79,88.11,118.79,76.27z"/>
					<path d="M124.36,83.79c-0.02,0.1-0.05,0.2-0.08,0.29l-0.11-0.19L124.36,83.79z"/>
					<polygon fill="#C04251" points="119.81,118.359 120.92,159.92 97.93,142.109 77.31,158.77 78.23,117.37 87.36,113.63 
						99.21,128.439 108.82,114.02 					"/>
					<polygon points="119.46,105.1 119.81,118.359 108.82,114.02 99.21,128.439 87.36,113.63 78.23,117.37 78.47,106.74 
						78.61,106.74 78.69,110.05 89.42,105.65 98.72,117.27 106.29,105.92 118.75,110.85 119.11,105.08 					"/>
					<path fill="#F7CA7C" d="M97.31,54.78c11.85,0,21.48,9.64,21.48,21.49c0,11.84-9.63,21.48-21.48,21.48s-21.48-9.64-21.48-21.48
						C75.83,64.42,85.46,54.78,97.31,54.78z"/>
					<path fill="#F7CA7C" d="M97.47,35.27l9.26,13.77l-0.23,0.69c-2.88-1.01-5.97-1.55-9.19-1.55c-12.86,0-23.73,8.69-27.04,20.52
						l-1.34-0.37l-7.49-12.46L75,54.45V41.11l13.72,5.41L97.47,35.27z"/>
					<path fill="#F7CA7C" d="M78.53,97.12l-0.13,0.15l-13.5,0.59l5.26-13.42l0.26-0.07C71.92,89.34,74.77,93.74,78.53,97.12z"/>
					<polygon points="78.47,106.74 78.23,117.37 72.32,119.8 72.01,106.59 					"/>
					<path fill="#F7CA7C" d="M70.42,84.37l-0.26,0.07l-13.02-5.79l11.79-10.32l1.34,0.37c-0.68,2.41-1.04,4.95-1.04,7.57
						C69.23,79.09,69.65,81.81,70.42,84.37z"/>
				</g>
			</g>
		</g>
	</g>
	<g display="inline">
		
			<image overflow="visible" opacity="0.75" enable-background="new    " width="117" height="166" xlink:href="A413B9F6.png"  transform="matrix(0.9915 0 0 1 284.5 -165.9995)">
		</image>
	</g>
	<g display="inline">
		
			<image overflow="visible" opacity="0.75" enable-background="new    " width="117" height="166" xlink:href="A413B9FA.png"  transform="matrix(0.9915 0 0 1 213.5 -165.9995)">
		</image>
	</g>
</g>
<g id="Layer_3" display="none">
	<g display="inline">
		<g>
			<g id="XMLID_5_">
				<g>
					<path fill="#FFFFFF" d="M362.82,86.79c0,29.81-25.87,52.29-61.521,53.44l-0.66,0.02c-4.63-0.01-11.33-1.41-16.709-2.529
						c-4.421-0.931-7.899-1.66-10.131-1.66c-2.109,0-3.64,0.709-4.529,2.109c-7.359,11.42-23.891,13.16-30.131,13.41L254.87,131
						c1.239-1.63,0.979-3.939-0.601-5.26c-12.471-10.33-19.34-24.17-19.34-38.95c0-30,28.689-54.4,63.949-54.4
						C334.13,32.39,362.82,56.79,362.82,86.79z M314.16,95.54L338.96,79h-30.54l-9.22-28.36L289.99,79h-30.5l24.74,16.61
						l-9.33,27.38l24.27-17.41l24.311,18.109L314.16,95.54z"/>
					<polygon fill="#FFFFFF" points="321.971,85 308.13,93.92 313.561,110 299.23,99.32 284.859,109.68 290.29,94.02 276.38,85 
						293.66,85 299.2,67.94 304.75,85 					"/>
					<path d="M370.46,86.79c0,34.101-28.979,59.78-68.91,61.08l-0.909,0.01c-5.421,0-12.551-1.489-18.279-2.688
						c-2.92-0.61-5.92-1.24-7.682-1.44c-10.488,14.36-31.09,15.5-37.31,15.5c-4.08,0-9.16,0-9.562-4.11
						c-0.129-1.279,0.41-2.779,1.812-3.67l17.01-22.27c-12.5-11.521-19.33-26.45-19.33-42.41c0-34.21,32.11-62.04,71.58-62.04
						S370.46,52.58,370.46,86.79z M301.3,140.23c35.65-1.15,61.521-23.631,61.521-53.44c0-30-28.689-54.4-63.939-54.4
						c-35.26,0-63.949,24.4-63.949,54.4c0,14.78,6.869,28.62,19.34,38.95c1.58,1.318,1.84,3.63,0.601,5.26l-15.729,20.58
						c6.239-0.25,22.771-1.99,30.129-13.41c0.892-1.4,2.422-2.109,4.53-2.109c2.23,0,5.71,0.729,10.13,1.66
						c5.381,1.119,12.08,2.52,16.711,2.529L301.3,140.23z"/>
					<path d="M338.96,79l-24.8,16.54l9.32,28.149l-24.312-18.109l-24.271,17.41l9.33-27.38L259.49,79h30.5l9.21-28.36L308.42,79
						H338.96z M308.13,93.92L321.971,85H304.75l-5.55-17.06L293.66,85h-17.28l13.91,9.02l-5.431,15.66l14.371-10.36l14.33,10.68
						L308.13,93.92z"/>
				</g>
			</g>
		</g>
	</g>
	<g display="inline">
		<g>
			<g id="XMLID_6_">
				<g>
					<path d="M171.96,86.79c0,34.101-28.98,59.78-68.91,61.08l-0.91,0.01c-5.42,0-12.55-1.489-18.28-2.688
						c-2.92-0.61-5.92-1.24-7.68-1.44c-10.49,14.36-31.09,15.5-37.31,15.5c-4.08,0-9.16,0-9.56-4.11
						c-0.13-1.279,0.41-2.779,1.81-3.67l17.01-22.27C35.63,117.68,28.8,102.75,28.8,86.79c0-34.21,32.11-62.04,71.58-62.04
						C139.85,24.75,171.96,52.58,171.96,86.79z M102.8,140.23c35.65-1.15,61.52-23.631,61.52-53.44c0-30-28.69-54.4-63.94-54.4
						c-35.26,0-63.95,24.4-63.95,54.4c0,14.78,6.87,28.62,19.34,38.95c1.58,1.318,1.84,3.63,0.6,5.26l-15.73,20.58
						c6.24-0.25,22.77-1.99,30.13-13.41c0.89-1.4,2.42-2.109,4.53-2.109c2.23,0,5.71,0.729,10.13,1.66
						c5.38,1.119,12.08,2.52,16.71,2.529L102.8,140.23z"/>
					<path fill="#157895" d="M164.32,86.79c0,29.81-25.87,52.29-61.52,53.44l-0.66,0.02c-4.63-0.01-11.33-1.41-16.71-2.529
						c-4.42-0.931-7.9-1.66-10.13-1.66c-2.11,0-3.64,0.709-4.53,2.109c-7.36,11.42-23.89,13.16-30.13,13.41L56.37,131
						c1.24-1.63,0.98-3.939-0.6-5.26c-12.47-10.33-19.34-24.17-19.34-38.95c0-30,28.69-54.4,63.95-54.4
						C135.63,32.39,164.32,56.79,164.32,86.79z M115.66,95.54L140.46,79h-30.54l-9.22-28.36L91.49,79h-30.5l24.74,16.61l-9.33,27.38
						l24.27-17.41l24.31,18.109L115.66,95.54z"/>
					<path d="M140.46,79l-24.8,16.54l9.32,28.149l-24.31-18.109L76.4,122.99l9.33-27.38L60.99,79h30.5l9.21-28.36L109.92,79H140.46z
						 M109.63,93.92L123.47,85h-17.22l-5.55-17.06L95.16,85H77.88l13.91,9.02l-5.43,15.66l14.37-10.36L115.06,110L109.63,93.92z"/>
					<polygon fill="#F7CA7C" points="123.47,85 109.63,93.92 115.06,110 100.73,99.32 86.36,109.68 91.79,94.02 77.88,85 95.16,85 
						100.7,67.94 106.25,85 					"/>
				</g>
			</g>
		</g>
	</g>
</g>
<g>
	<g>
		<g id="XMLID_2_">
			<g>
				<path fill="#FFFFFF" d="M345.103,24.392c0,14.403-12.499,25.266-29.727,25.821l-0.318,0.01
					c-2.236-0.005-5.473-0.682-8.073-1.222c-2.136-0.45-3.816-0.802-4.895-0.802c-1.018,0-1.758,0.342-2.188,1.02
					c-3.555,5.518-11.542,6.358-14.559,6.479l7.602-9.943c0.599-0.788,0.474-1.904-0.291-2.542
					c-6.024-4.991-9.343-11.678-9.343-18.82c0-14.495,13.861-26.284,30.897-26.284C331.24-1.892,345.103,9.897,345.103,24.392z
					 M321.592,28.62l11.983-7.992h-14.757l-4.455-13.702l-4.449,13.702h-14.737l11.953,8.026l-4.508,13.229l11.726-8.412
					l11.747,8.75L321.592,28.62z"/>
				<polygon fill="#FFFFFF" points="325.365,23.527 318.679,27.837 321.302,35.607 314.378,30.446 307.434,35.452 310.058,27.886 
					303.338,23.527 311.687,23.527 314.363,15.285 317.045,23.527 				"/>
				<path d="M348.794,24.392c0,16.477-14.003,28.884-33.295,29.513l-0.439,0.004c-2.62,0-6.064-0.72-8.832-1.299
					c-1.411-0.295-2.861-0.6-3.711-0.696c-5.068,6.938-15.022,7.489-18.026,7.489c-1.973,0-4.428,0-4.621-1.986
					c-0.063-0.618,0.199-1.343,0.874-1.773l8.221-10.76c-6.04-5.567-9.341-12.78-9.341-20.492c0-16.529,15.515-29.976,34.585-29.976
					C333.279-5.583,348.794,7.863,348.794,24.392z M315.377,50.213c17.227-0.555,29.726-11.417,29.726-25.821
					c0-14.495-13.862-26.284-30.895-26.284c-17.036,0-30.896,11.79-30.896,26.284c0,7.142,3.318,13.829,9.344,18.82
					c0.764,0.637,0.888,1.754,0.291,2.542l-7.601,9.943c3.014-0.121,11.001-0.961,14.557-6.479c0.432-0.677,1.17-1.02,2.189-1.02
					c1.077,0,2.759,0.353,4.895,0.802c2.6,0.541,5.837,1.217,8.074,1.222L315.377,50.213z"/>
				<path d="M333.575,20.628l-11.983,7.992l4.503,13.601l-11.747-8.75l-11.727,8.412l4.508-13.229l-11.952-8.026h14.737
					l4.449-13.702l4.455,13.702H333.575z M318.679,27.837l6.687-4.31h-8.32l-2.682-8.243l-2.677,8.243h-8.349l6.72,4.358
					l-2.624,7.566l6.944-5.006l6.924,5.161L318.679,27.837z"/>
			</g>
		</g>
	</g>
</g>
<g>
	<g id="XMLID_1_">
		<g>
			<path d="M108.79,24.39c0,16.48-14,28.89-33.29,29.51l-0.44,0.01c-2.62,0-6.06-0.72-8.83-1.3c-1.41-0.29-2.86-0.6-3.71-0.7
				c-5.07,6.94-15.03,7.49-18.03,7.49c-1.97,0-4.43,0-4.62-1.98c-0.06-0.62,0.2-1.35,0.87-1.78l8.22-10.76
				c-6.04-5.56-9.34-12.78-9.34-20.49c0-16.53,15.52-29.97,34.59-29.97S108.79,7.86,108.79,24.39z M75.38,50.21
				C92.6,49.66,105.1,38.8,105.1,24.39c0-14.49-13.86-26.28-30.89-26.28c-17.04,0-30.9,11.79-30.9,26.28c0,4.46,1.3,8.75,3.74,12.56
				c0.48,0.76,1.02,1.5,1.6,2.22c0.58,0.73,1.21,1.43,1.88,2.09c0.66,0.68,1.38,1.33,2.13,1.95c0.18,0.15,0.33,0.34,0.43,0.54
				c0.09,0.15,0.15,0.32,0.19,0.49c0.09,0.42,0.04,0.86-0.17,1.25c-0.05,0.09-0.11,0.18-0.17,0.26l-7.6,9.95h0.01
				c3.01-0.12,11-0.96,14.55-6.48c0.43-0.68,1.17-1.02,2.19-1.02c1.08,0,2.76,0.35,4.9,0.8c2.6,0.54,5.83,1.22,8.07,1.22
				L75.38,50.21z"/>
			<path fill="#157895" d="M105.1,24.39c0,14.41-12.5,25.27-29.72,25.82l-0.32,0.01c-2.24,0-5.47-0.68-8.07-1.22
				c-2.14-0.45-3.82-0.8-4.9-0.8c-1.02,0-1.76,0.34-2.19,1.02c-3.55,5.52-11.54,6.36-14.55,6.48l7.6-9.95
				c0.06-0.08,0.12-0.17,0.16-0.26c0.21-0.39,0.26-0.83,0.17-1.25c-0.04-0.17-0.1-0.33-0.19-0.49c-0.1-0.2-0.25-0.39-0.43-0.54
				c-0.75-0.62-1.47-1.27-2.13-1.95c-0.67-0.67-1.3-1.37-1.88-2.09c-0.58-0.72-1.11-1.46-1.6-2.22c-2.44-3.81-3.74-8.1-3.74-12.56
				c0-14.49,13.86-26.28,30.9-26.28C91.24-1.89,105.1,9.9,105.1,24.39z M81.59,28.62l11.99-7.99H78.82l-4.46-13.7l-4.45,13.7H55.18
				l11.95,8.02l-4.51,13.23l11.73-8.41l11.74,8.75L81.59,28.62z"/>
			<path d="M93.58,20.63l-11.99,7.99l4.5,13.6l-11.74-8.75l-11.73,8.41l4.51-13.23l-11.95-8.02h14.73l4.45-13.7l4.46,13.7H93.58z
				 M78.68,27.84l6.69-4.31h-8.33l-2.68-8.25l-2.67,8.25h-8.35l6.72,4.36l-2.63,7.56l6.95-5l6.92,5.16L78.68,27.84z"/>
			<polygon fill="#F7CA7C" points="85.37,23.53 78.68,27.84 81.3,35.61 74.38,30.45 67.43,35.45 70.06,27.89 63.34,23.53 
				71.69,23.53 74.36,15.28 77.04,23.53 			"/>
			<path d="M53.09,43.75c0.09,0.16,0.15,0.32,0.19,0.49C53.24,44.07,53.18,43.9,53.09,43.75z"/>
			<path d="M53.11,45.49c-0.04,0.09-0.1,0.18-0.16,0.26l-7.6,9.95h-0.01l7.6-9.95C53,45.67,53.06,45.58,53.11,45.49z"/>
			<path d="M48.65,39.17c0.58,0.72,1.21,1.42,1.88,2.09C49.86,40.6,49.23,39.9,48.65,39.17z"/>
			<path d="M47.05,36.95c0.49,0.76,1.02,1.5,1.6,2.22C48.07,38.45,47.53,37.71,47.05,36.95z"/>
		</g>
	</g>
</g>
</svg>
