<?xml version="1.0" encoding="utf-8"?>
<!-- Generator: Adobe Illustrator 16.0.0, SVG Export Plug-In . SVG Version: 6.00 Build 0)  -->
<!DOCTYPE svg PUBLIC "-//W3C//DTD SVG 1.1//EN" "http://www.w3.org/Graphics/SVG/1.1/DTD/svg11.dtd">
<svg version="1.1" id="Layer_1" xmlns="http://www.w3.org/2000/svg" xmlns:xlink="http://www.w3.org/1999/xlink" x="0px" y="0px"
	 width="480px" height="280px" viewBox="-48 -40 480 280" enable-background="new -48 -40 480 280" xml:space="preserve">
<g id="Layer_2" display="none">
	<g display="inline">
		<g>
			<g id="XMLID_3_">
				<g>
					<path d="M346.07,77.32l-16.852,9.16l9.881,17.47l-17.261-0.78l-0.108,1.76l-6.271,0.17l-0.35-0.02l0.55-8.8l11.819,0.54
						l-7.199-12.74c0.029-0.09,0.06-0.19,0.08-0.29l13.358-7.26l-11.46-8.3l7.04-11.56l-14.5-1.14l-0.34-11.86l-11.729,5.37
						l-9.261-13.77l-8.75,11.25L271,41.11v13.34l-13.561,1.42l7.49,12.46l-11.791,10.32l13.021,5.79l-5.26,13.42l13.5-0.59
						l0.209,9.47h-0.141l-6.46-0.15l-0.06-2.43l-16.9,0.729l6.65-16.979L241,80.49l15.34-13.47L246.2,50.4l17.8-1.89V31.45
						l18.37,7.15l11.51-14.52l11.19,16.63l15.68-7.19l0.48,15.9l19.278,1.5l-9.45,15.54L346.07,77.32z"/>
					<path fill="#FFFFFF" d="M333.721,76.53l-13.359,7.26c0.67-2.39,1.029-4.92,1.029-7.52c0-2.61-0.359-5.13-1.029-7.52l1.898-0.52
						L333.721,76.53z"/>
					<path fill="#FFFFFF" d="M329.3,56.67l-7.04,11.56l-1.898,0.52c-2.461-8.89-9.211-16.02-17.86-19.02l0.229-0.69l11.729-5.37
						l0.34,11.86L329.3,56.67z"/>
					<path fill="#FFFFFF" d="M320.279,84.08l7.201,12.74l-11.82-0.54l-0.551,8.8l-0.359,5.77l-12.46-4.93l-7.569,11.35
						l-9.301-11.619l-10.729,4.399l-0.08-3.31l-0.211-9.47l0.131-0.15c4.979,4.5,11.568,7.229,18.779,7.229
						C306.09,104.35,316.891,95.78,320.279,84.08z"/>
					<polygon points="322.05,104.92 323.891,173.68 294.01,150.52 266.391,172.85 267.87,106.59 268.01,106.59 268.32,119.8 
						274.23,117.37 273.311,158.77 293.93,142.109 316.92,159.92 315.811,118.359 320.77,120.32 321.73,104.93 					"/>
					<polygon points="321.73,104.93 320.77,120.32 315.811,118.359 315.46,105.1 					"/>
					<path d="M320.359,68.75c0.67,2.39,1.029,4.91,1.029,7.52c0,2.6-0.359,5.13-1.029,7.52l-0.189,0.1l0.109,0.19
						c-3.391,11.7-14.189,20.27-26.971,20.27c-7.209,0-13.8-2.729-18.779-7.229c-3.76-3.38-6.609-7.78-8.109-12.75
						c-0.77-2.56-1.189-5.28-1.189-8.1c0-2.62,0.359-5.16,1.039-7.57c3.312-11.83,14.182-20.52,27.041-20.52
						c3.221,0,6.311,0.54,9.189,1.55C311.15,52.73,317.9,59.86,320.359,68.75z M314.79,76.27c0-11.85-9.63-21.49-21.479-21.49
						c-11.851,0-21.479,9.64-21.479,21.49c0,11.84,9.63,21.48,21.479,21.48S314.79,88.11,314.79,76.27z"/>
					<path d="M320.359,83.79c-0.021,0.1-0.051,0.2-0.08,0.29l-0.109-0.19L320.359,83.79z"/>
					<polygon points="315.46,105.1 315.811,118.359 304.82,114.02 295.21,128.439 283.359,113.63 274.23,117.37 274.471,106.74 
						274.609,106.74 274.689,110.05 285.42,105.65 294.721,117.27 302.29,105.92 314.75,110.85 315.109,105.08 					"/>
					<path fill="#FFFFFF" d="M293.311,54.78c11.851,0,21.479,9.64,21.479,21.49c0,11.84-9.63,21.48-21.479,21.48
						c-11.851,0-21.479-9.64-21.479-21.48C271.83,64.42,281.46,54.78,293.311,54.78z"/>
					<path fill="#FFFFFF" d="M293.471,35.27l9.26,13.77l-0.229,0.69c-2.88-1.01-5.97-1.55-9.19-1.55
						c-12.858,0-23.729,8.69-27.039,20.52l-1.34-0.37l-7.49-12.46L271,54.45V41.11l13.721,5.41L293.471,35.27z"/>
					<path fill="#FFFFFF" d="M274.529,97.12l-0.129,0.15l-13.5,0.59l5.26-13.42l0.26-0.07C267.92,89.34,270.77,93.74,274.529,97.12z
						"/>
					<polygon points="274.471,106.74 274.23,117.37 268.32,119.8 268.01,106.59 					"/>
					<path fill="#FFFFFF" d="M266.42,84.37l-0.26,0.07l-13.021-5.79l11.791-10.32l1.34,0.37c-0.681,2.41-1.039,4.95-1.039,7.57
						C265.23,79.09,265.65,81.81,266.42,84.37z"/>
				</g>
			</g>
		</g>
	</g>
	<g display="inline">
		<g>
			<g id="XMLID_4_">
				<g>
					<path d="M150.07,77.32l-16.85,9.16l9.88,17.47l-17.26-0.78l-0.11,1.76l-6.27,0.17l-0.35-0.02l0.55-8.8l11.82,0.54l-7.2-12.74
						c0.03-0.09,0.06-0.19,0.08-0.29l13.36-7.26l-11.46-8.3l7.04-11.56l-14.5-1.14l-0.34-11.86l-11.73,5.37l-9.26-13.77l-8.75,11.25
						L75,41.11v13.34l-13.56,1.42l7.49,12.46L57.14,78.65l13.02,5.79L64.9,97.86l13.5-0.59l0.21,9.47h-0.14l-6.46-0.15l-0.06-2.43
						l-16.9,0.729L61.7,87.91L45,80.49l15.34-13.47L50.2,50.4L68,48.51V31.45l18.37,7.15l11.51-14.52l11.19,16.63l15.68-7.19
						l0.48,15.9l19.28,1.5l-9.45,15.54L150.07,77.32z"/>
					<path fill="#F7CA7C" d="M137.72,76.53l-13.36,7.26c0.67-2.39,1.03-4.92,1.03-7.52c0-2.61-0.36-5.13-1.03-7.52l1.9-0.52
						L137.72,76.53z"/>
					<path fill="#F7CA7C" d="M133.3,56.67l-7.04,11.56l-1.9,0.52c-2.46-8.89-9.21-16.02-17.86-19.02l0.23-0.69l11.73-5.37
						l0.34,11.86L133.3,56.67z"/>
					<path fill="#F7CA7C" d="M124.28,84.08l7.2,12.74l-11.82-0.54l-0.55,8.8l-0.36,5.77l-12.46-4.93l-7.57,11.35l-9.3-11.619
						l-10.73,4.399l-0.08-3.31l-0.21-9.47l0.13-0.15c4.98,4.5,11.57,7.229,18.78,7.229C110.09,104.35,120.89,95.78,124.28,84.08z"/>
					<polygon points="126.05,104.92 127.89,173.68 98.01,150.52 70.39,172.85 71.87,106.59 72.01,106.59 72.32,119.8 78.23,117.37 
						77.31,158.77 97.93,142.109 120.92,159.92 119.81,118.359 124.77,120.32 125.73,104.93 					"/>
					<polygon points="125.73,104.93 124.77,120.32 119.81,118.359 119.46,105.1 					"/>
					<path d="M124.36,68.75c0.67,2.39,1.03,4.91,1.03,7.52c0,2.6-0.36,5.13-1.03,7.52l-0.19,0.1l0.11,0.19
						c-3.39,11.7-14.19,20.27-26.97,20.27c-7.21,0-13.8-2.729-18.78-7.229c-3.76-3.38-6.61-7.78-8.11-12.75
						c-0.77-2.56-1.19-5.28-1.19-8.1c0-2.62,0.36-5.16,1.04-7.57c3.31-11.83,14.18-20.52,27.04-20.52c3.22,0,6.31,0.54,9.19,1.55
						C115.15,52.73,121.9,59.86,124.36,68.75z M118.79,76.27c0-11.85-9.63-21.49-21.48-21.49s-21.48,9.64-21.48,21.49
						c0,11.84,9.63,21.48,21.48,21.48S118.79,88.11,118.79,76.27z"/>
					<path d="M124.36,83.79c-0.02,0.1-0.05,0.2-0.08,0.29l-0.11-0.19L124.36,83.79z"/>
					<polygon fill="#C04251" points="119.81,118.359 120.92,159.92 97.93,142.109 77.31,158.77 78.23,117.37 87.36,113.63 
						99.21,128.439 108.82,114.02 					"/>
					<polygon points="119.46,105.1 119.81,118.359 108.82,114.02 99.21,128.439 87.36,113.63 78.23,117.37 78.47,106.74 
						78.61,106.74 78.69,110.05 89.42,105.65 98.72,117.27 106.29,105.92 118.75,110.85 119.11,105.08 					"/>
					<path fill="#F7CA7C" d="M97.31,54.78c11.85,0,21.48,9.64,21.48,21.49c0,11.84-9.63,21.48-21.48,21.48s-21.48-9.64-21.48-21.48
						C75.83,64.42,85.46,54.78,97.31,54.78z"/>
					<path fill="#F7CA7C" d="M97.47,35.27l9.26,13.77l-0.23,0.69c-2.88-1.01-5.97-1.55-9.19-1.55c-12.86,0-23.73,8.69-27.04,20.52
						l-1.34-0.37l-7.49-12.46L75,54.45V41.11l13.72,5.41L97.47,35.27z"/>
					<path fill="#F7CA7C" d="M78.53,97.12l-0.13,0.15l-13.5,0.59l5.26-13.42l0.26-0.07C71.92,89.34,74.77,93.74,78.53,97.12z"/>
					<polygon points="78.47,106.74 78.23,117.37 72.32,119.8 72.01,106.59 					"/>
					<path fill="#F7CA7C" d="M70.42,84.37l-0.26,0.07l-13.02-5.79l11.79-10.32l1.34,0.37c-0.68,2.41-1.04,4.95-1.04,7.57
						C69.23,79.09,69.65,81.81,70.42,84.37z"/>
				</g>
			</g>
		</g>
	</g>
	<g display="inline">
		
			<image overflow="visible" opacity="0.75" enable-background="new    " width="117" height="166" xlink:href="D9611C7A.png"  transform="matrix(0.9915 0 0 1 284.5 -165.9995)">
		</image>
	</g>
	<g display="inline">
		
			<image overflow="visible" opacity="0.75" enable-background="new    " width="117" height="166" xlink:href="D9611C7E.png"  transform="matrix(0.9915 0 0 1 213.5 -165.9995)">
		</image>
	</g>
</g>
<g id="Layer_3" display="none">
	<g display="inline">
		<g>
			<g id="XMLID_5_">
				<g>
					<path fill="#FFFFFF" d="M362.82,86.79c0,29.81-25.87,52.29-61.521,53.44l-0.66,0.02c-4.63-0.01-11.33-1.41-16.709-2.529
						c-4.421-0.931-7.899-1.66-10.131-1.66c-2.109,0-3.64,0.709-4.529,2.109c-7.359,11.42-23.891,13.16-30.131,13.41L254.87,131
						c1.239-1.63,0.979-3.939-0.601-5.26c-12.471-10.33-19.34-24.17-19.34-38.95c0-30,28.689-54.4,63.949-54.4
						C334.13,32.39,362.82,56.79,362.82,86.79z M314.16,95.54L338.96,79h-30.54l-9.22-28.36L289.99,79h-30.5l24.74,16.61
						l-9.33,27.38l24.27-17.41l24.311,18.109L314.16,95.54z"/>
					<polygon fill="#FFFFFF" points="321.971,85 308.13,93.92 313.561,110 299.23,99.32 284.859,109.68 290.29,94.02 276.38,85 
						293.66,85 299.2,67.94 304.75,85 					"/>
					<path d="M370.46,86.79c0,34.101-28.979,59.78-68.91,61.08l-0.909,0.01c-5.421,0-12.551-1.489-18.279-2.688
						c-2.92-0.61-5.92-1.24-7.682-1.44c-10.488,14.36-31.09,15.5-37.31,15.5c-4.08,0-9.16,0-9.562-4.11
						c-0.129-1.279,0.41-2.779,1.812-3.67l17.01-22.27c-12.5-11.521-19.33-26.45-19.33-42.41c0-34.21,32.11-62.04,71.58-62.04
						S370.46,52.58,370.46,86.79z M301.3,140.23c35.65-1.15,61.521-23.631,61.521-53.44c0-30-28.689-54.4-63.939-54.4
						c-35.26,0-63.949,24.4-63.949,54.4c0,14.78,6.869,28.62,19.34,38.95c1.58,1.318,1.84,3.63,0.601,5.26l-15.729,20.58
						c6.239-0.25,22.771-1.99,30.129-13.41c0.892-1.4,2.422-2.109,4.53-2.109c2.23,0,5.71,0.729,10.13,1.66
						c5.381,1.119,12.08,2.52,16.711,2.529L301.3,140.23z"/>
					<path d="M338.96,79l-24.8,16.54l9.32,28.149l-24.312-18.109l-24.271,17.41l9.33-27.38L259.49,79h30.5l9.21-28.36L308.42,79
						H338.96z M308.13,93.92L321.971,85H304.75l-5.55-17.06L293.66,85h-17.28l13.91,9.02l-5.431,15.66l14.371-10.36l14.33,10.68
						L308.13,93.92z"/>
				</g>
			</g>
		</g>
	</g>
	<g display="inline">
		<g>
			<g id="XMLID_6_">
				<g>
					<path d="M171.96,86.79c0,34.101-28.98,59.78-68.91,61.08l-0.91,0.01c-5.42,0-12.55-1.489-18.28-2.688
						c-2.92-0.61-5.92-1.24-7.68-1.44c-10.49,14.36-31.09,15.5-37.31,15.5c-4.08,0-9.16,0-9.56-4.11
						c-0.13-1.279,0.41-2.779,1.81-3.67l17.01-22.27C35.63,117.68,28.8,102.75,28.8,86.79c0-34.21,32.11-62.04,71.58-62.04
						C139.85,24.75,171.96,52.58,171.96,86.79z M102.8,140.23c35.65-1.15,61.52-23.631,61.52-53.44c0-30-28.69-54.4-63.94-54.4
						c-35.26,0-63.95,24.4-63.95,54.4c0,14.78,6.87,28.62,19.34,38.95c1.58,1.318,1.84,3.63,0.6,5.26l-15.73,20.58
						c6.24-0.25,22.77-1.99,30.13-13.41c0.89-1.4,2.42-2.109,4.53-2.109c2.23,0,5.71,0.729,10.13,1.66
						c5.38,1.119,12.08,2.52,16.71,2.529L102.8,140.23z"/>
					<path fill="#157895" d="M164.32,86.79c0,29.81-25.87,52.29-61.52,53.44l-0.66,0.02c-4.63-0.01-11.33-1.41-16.71-2.529
						c-4.42-0.931-7.9-1.66-10.13-1.66c-2.11,0-3.64,0.709-4.53,2.109c-7.36,11.42-23.89,13.16-30.13,13.41L56.37,131
						c1.24-1.63,0.98-3.939-0.6-5.26c-12.47-10.33-19.34-24.17-19.34-38.95c0-30,28.69-54.4,63.95-54.4
						C135.63,32.39,164.32,56.79,164.32,86.79z M115.66,95.54L140.46,79h-30.54l-9.22-28.36L91.49,79h-30.5l24.74,16.61l-9.33,27.38
						l24.27-17.41l24.31,18.109L115.66,95.54z"/>
					<path d="M140.46,79l-24.8,16.54l9.32,28.149l-24.31-18.109L76.4,122.99l9.33-27.38L60.99,79h30.5l9.21-28.36L109.92,79H140.46z
						 M109.63,93.92L123.47,85h-17.22l-5.55-17.06L95.16,85H77.88l13.91,9.02l-5.43,15.66l14.37-10.36L115.06,110L109.63,93.92z"/>
					<polygon fill="#F7CA7C" points="123.47,85 109.63,93.92 115.06,110 100.73,99.32 86.36,109.68 91.79,94.02 77.88,85 95.16,85 
						100.7,67.94 106.25,85 					"/>
				</g>
			</g>
		</g>
	</g>
</g>
<g>
	<g>
		<g id="XMLID_9_">
			<g>
				<path d="M342.102,16.007l-8.997,4.891l5.274,9.328l-9.216-0.416l-0.057,0.939l-3.349,0.091l-0.188-0.011l0.294-4.699
					l6.311,0.288l-3.844-6.802c0.016-0.048,0.031-0.101,0.043-0.155l7.133-3.876l-6.119-4.432l3.759-6.173l-7.742-0.609
					l-0.182-6.332l-6.264,2.867l-4.943-7.353l-4.673,6.007l-7.324-2.888v7.123l-7.241,0.758l4,6.653l-6.296,5.51l6.953,3.091
					l-2.809,7.166l7.209-0.315l0.111,5.057h-0.076l-3.449-0.08l-0.032-1.298l-9.023,0.389l3.551-9.065L286,17.7l8.191-7.191
					l-5.414-8.875l9.504-1.009v-9.109l9.808,3.818l6.146-7.753l5.975,8.88l8.372-3.839l0.256,8.489l10.295,0.801l-5.047,8.297
					L342.102,16.007z"/>
				<path fill="#FFFFFF" d="M335.508,15.585l-7.133,3.876c0.357-1.275,0.55-2.626,0.55-4.015c0-1.393-0.192-2.739-0.55-4.015
					l1.014-0.278L335.508,15.585z"/>
				<path fill="#FFFFFF" d="M333.147,4.981l-3.759,6.173l-1.014,0.278c-1.314-4.747-4.918-8.554-9.537-10.156l0.123-0.369
					l6.263-2.867l0.182,6.332L333.147,4.981z"/>
				<path fill="#FFFFFF" d="M328.331,19.617l3.846,6.802l-6.313-0.288l-0.294,4.699l-0.191,3.081l-6.652-2.632l-4.043,6.06
					l-4.965-6.204l-5.729,2.349l-0.042-1.767l-0.112-5.057l0.067-0.08c2.66,2.403,6.179,3.86,10.029,3.86
					C320.754,30.439,326.521,25.864,328.331,19.617z"/>
				<polygon points="329.275,30.745 330.259,67.458 314.305,55.092 299.557,67.015 300.348,31.636 300.421,31.636 300.588,38.689 
					303.743,37.392 303.252,59.497 314.262,50.602 326.537,60.111 325.945,37.92 328.593,38.968 329.106,30.75 				"/>
				<polygon points="329.106,30.75 328.593,38.968 325.945,37.92 325.758,30.84 				"/>
				<path d="M328.374,11.432c0.357,1.276,0.548,2.622,0.548,4.015c0,1.389-0.19,2.74-0.548,4.015l-0.102,0.055l0.059,0.101
					c-1.811,6.248-7.577,10.823-14.401,10.823c-3.849,0-7.368-1.456-10.027-3.859c-2.007-1.804-3.529-4.155-4.329-6.808
					c-0.411-1.367-0.635-2.819-0.635-4.325c0-1.399,0.191-2.756,0.554-4.042c1.77-6.316,7.572-10.956,14.439-10.956
					c1.719,0,3.368,0.288,4.906,0.827C323.457,2.877,327.061,6.685,328.374,11.432z M325.399,15.446
					c0-6.327-5.142-11.474-11.468-11.474c-6.328,0-11.469,5.147-11.469,11.474c0,6.322,5.142,11.47,11.469,11.47
					C320.258,26.916,325.399,21.769,325.399,15.446z"/>
				<path d="M328.374,19.461c-0.012,0.055-0.027,0.107-0.043,0.155l-0.059-0.101L328.374,19.461z"/>
				<polygon points="325.758,30.84 325.945,37.92 320.076,35.603 314.945,43.302 308.617,35.395 303.743,37.392 303.872,31.716 
					303.946,31.716 303.989,33.483 309.719,31.135 314.684,37.338 318.727,31.278 325.379,33.911 325.57,30.83 				"/>
				<path fill="#FFFFFF" d="M313.932,3.972c6.326,0,11.468,5.147,11.468,11.474c0,6.322-5.142,11.47-11.468,11.47
					c-6.328,0-11.469-5.147-11.469-11.47C302.462,9.119,307.604,3.972,313.932,3.972z"/>
				<path fill="#FFFFFF" d="M314.017-6.445l4.944,7.353l-0.123,0.369c-1.538-0.54-3.188-0.828-4.906-0.828
					c-6.867,0-12.67,4.641-14.438,10.957l-0.715-0.197l-3.999-6.653l7.239-0.758v-7.123l7.326,2.888L314.017-6.445z"/>
				<path fill="#FFFFFF" d="M303.902,26.58l-0.067,0.08l-7.209,0.315l2.809-7.166l0.139-0.038
					C300.373,22.425,301.896,24.774,303.902,26.58z"/>
				<polygon points="303.872,31.716 303.743,37.392 300.588,38.689 300.421,31.636 				"/>
				<path fill="#FFFFFF" d="M299.573,19.771l-0.139,0.038l-6.953-3.091l6.296-5.51l0.715,0.197
					c-0.363,1.287-0.554,2.643-0.554,4.042C298.938,16.952,299.162,18.405,299.573,19.771z"/>
			</g>
		</g>
	</g>
</g>
<g>
	<g>
		<g id="XMLID_8_">
			<g>
				<path d="M101.68,16.087l-8.874,4.825l5.203,9.201l-9.09-0.411l-0.058,0.927l-3.303,0.09l-0.185-0.011l0.291-4.635l6.225,0.285
					l-3.792-6.709c0.016-0.048,0.032-0.1,0.042-0.153l7.037-3.824L89.14,11.3l3.708-6.088l-7.637-0.601l-0.179-6.246l-6.177,2.829
					l-4.877-7.252l-4.608,5.925l-7.226-2.849v7.026l-7.142,0.748l3.945,6.562l-6.21,5.435l6.857,3.049l-2.771,7.068l7.111-0.31
					l0.11,4.987H63.97l-3.402-0.079l-0.031-1.28l-8.901,0.384l3.502-8.942l-8.795-3.908l8.079-7.094l-5.34-8.753l9.375-0.995v-8.985
					l9.675,3.766l6.062-7.647l5.895,8.759l8.257-3.787l0.253,8.373l10.154,0.791l-4.977,8.185L101.68,16.087z"/>
				<path fill="#F7CA7C" d="M95.176,15.671l-7.037,3.824c0.353-1.259,0.543-2.592,0.543-3.961c0-1.375-0.19-2.702-0.543-3.96
					L89.14,11.3L95.176,15.671z"/>
				<path fill="#F7CA7C" d="M92.848,5.212L89.14,11.3l-1.001,0.274c-1.295-4.683-4.851-8.438-9.406-10.018l0.122-0.363l6.177-2.829
					l0.179,6.246L92.848,5.212z"/>
				<path fill="#F7CA7C" d="M88.097,19.648l3.792,6.709l-6.225-0.285l-0.291,4.635l-0.189,3.039l-6.562-2.596l-3.986,5.977
					l-4.898-6.119l-5.651,2.316l-0.042-1.743l-0.11-4.987l0.068-0.079c2.623,2.37,6.094,3.807,9.892,3.807
					C80.624,30.323,86.313,25.81,88.097,19.648z"/>
				<polygon points="89.03,30.624 89.999,66.838 74.262,54.641 59.715,66.4 60.495,31.504 60.568,31.504 60.731,38.461 
					63.844,37.181 63.359,58.985 74.219,50.211 86.328,59.591 85.743,37.702 88.355,38.735 88.861,30.629 				"/>
				<polygon points="88.861,30.629 88.355,38.735 85.743,37.702 85.559,30.719 				"/>
				<path d="M88.139,11.575c0.353,1.258,0.543,2.585,0.543,3.96c0,1.369-0.19,2.702-0.543,3.961l-0.1,0.053l0.058,0.1
					c-1.785,6.162-7.474,10.675-14.204,10.675c-3.798,0-7.269-1.437-9.892-3.807c-1.98-1.779-3.481-4.097-4.271-6.714
					c-0.406-1.349-0.627-2.781-0.627-4.267c0-1.38,0.189-2.717,0.548-3.987C61.396,5.317,67.12,0.742,73.894,0.742
					c1.695,0,3.322,0.284,4.839,0.816C83.289,3.137,86.844,6.892,88.139,11.575z M85.206,15.535c0-6.241-5.072-11.318-11.312-11.318
					c-6.242,0-11.313,5.078-11.313,11.318c0,6.236,5.072,11.313,11.313,11.313C80.134,26.848,85.206,21.771,85.206,15.535z"/>
				<path d="M88.139,19.496c-0.01,0.053-0.026,0.105-0.042,0.153l-0.058-0.1L88.139,19.496z"/>
				<polygon fill="#C04251" points="85.743,37.702 86.328,59.591 74.219,50.211 63.359,58.985 63.844,37.181 68.652,35.211 
					74.894,43.011 79.956,35.417 				"/>
				<polygon points="85.559,30.719 85.743,37.702 79.956,35.417 74.894,43.011 68.652,35.211 63.844,37.181 63.97,31.583 
					64.044,31.583 64.086,33.325 69.738,31.009 74.636,37.128 78.623,31.151 85.185,33.747 85.374,30.708 				"/>
				<path fill="#F7CA7C" d="M73.894,4.216c6.24,0,11.312,5.078,11.312,11.318c0,6.236-5.072,11.313-11.312,11.313
					c-6.242,0-11.313-5.077-11.313-11.313C62.58,9.294,67.652,4.216,73.894,4.216z"/>
				<path fill="#F7CA7C" d="M73.978-6.059l4.877,7.252l-0.122,0.363c-1.517-0.532-3.145-0.817-4.839-0.817
					c-6.774,0-12.498,4.577-14.242,10.808l-0.706-0.195l-3.945-6.562l7.142-0.748v-7.026l7.226,2.849L73.978-6.059z"/>
				<path fill="#F7CA7C" d="M64.002,26.516l-0.068,0.079l-7.111,0.31l2.771-7.068l0.137-0.036
					C60.521,22.418,62.022,24.735,64.002,26.516z"/>
				<polygon points="63.97,31.583 63.844,37.181 60.731,38.461 60.568,31.504 				"/>
				<path fill="#F7CA7C" d="M59.731,19.801l-0.137,0.036l-6.857-3.049l6.21-5.435l0.706,0.195c-0.359,1.27-0.548,2.607-0.548,3.987
					C59.104,17.021,59.325,18.453,59.731,19.801z"/>
			</g>
		</g>
	</g>
</g>
</svg>
