<?xml version="1.0" encoding="utf-8"?>
<!-- Generator: Adobe Illustrator 16.0.0, SVG Export Plug-In . SVG Version: 6.00 Build 0)  -->
<!DOCTYPE svg PUBLIC "-//W3C//DTD SVG 1.1//EN" "http://www.w3.org/Graphics/SVG/1.1/DTD/svg11.dtd">
<svg version="1.1" id="Layer_1" xmlns="http://www.w3.org/2000/svg" xmlns:xlink="http://www.w3.org/1999/xlink" x="0px" y="0px"
	 width="480px" height="280px" viewBox="-48 -40 480 280" enable-background="new -48 -40 480 280" xml:space="preserve">
<g>
	<g>
		<g id="XMLID_7_">
			<g>
				<path fill="#157895" d="M339.053,49.678c0.508,0.611,3.324,4.247,0.031,7.35c-0.524,0.493-1.068,0.839-1.633,1.065
					c-0.563,0.225-1.151,0.327-1.77,0.327c-2.347,0-4.357-1.869-4.365-1.869l-15.375-14.977l5.926-6.199L339.053,49.678z"/>
				<polygon fill="#157895" points="298.2,12.887 298.381,17.907 293.456,17.907 289.123,11.42 291.914,8.727 				"/>
				<path fill="#157895" d="M338.142,17.477c0.588,2.733,0.627,7.406-3.864,11.893c-1.514,1.511-4.264,1.83-6.31,1.83
					c-2.796,0-5.265-0.587-5.288-0.595c-0.567-0.134-1.171,0.036-1.585,0.449l-0.729,0.734L295.648,56.5
					c-0.166,0.024-0.379,0.04-0.627,0.04c-1.451,0-2.693-0.608-3.698-1.814c-1.728-2.074-1.022-4.46-0.729-5.221l20.563-19.038
					l5.536-5.123c0.502-0.461,0.675-1.175,0.438-1.81c-0.023-0.071-2.508-7.023,1.066-10.907c2.219-2.413,4.948-3.636,8.11-3.636
					c0.911,0,1.755,0.103,2.469,0.245l-7.452,8.127c-0.316,0.343-0.475,0.805-0.438,1.266c0.039,0.465,0.265,0.895,0.627,1.187
					l7.011,5.607c0.687,0.548,1.676,0.478,2.275-0.157L338.142,17.477z"/>
				<path d="M322.803,31.783l3.248,2.709c-1.328-0.103-2.469-0.28-3.221-0.418l-9.622,9.622l-0.796-0.781
					c-0.65-0.639-0.675-1.652-0.052-2.314l8.136-8.684C321.103,31.267,322.116,31.207,322.803,31.783z"/>
				<path d="M321.867,35.375l-5.926,6.199l15.375,14.977c0.008,0,2.019,1.869,4.365,1.869c0.618,0,1.206-0.103,1.77-0.327
					c0.564-0.226,1.108-0.572,1.633-1.065c3.293-3.104,0.477-6.739-0.031-7.35L321.867,35.375z M313.208,43.696l9.622-9.622
					c0.752,0.138,1.893,0.315,3.221,0.418h0.005l15.257,12.721c0.063,0.052,0.121,0.11,0.178,0.173
					c2.025,2.268,4.617,7.594-0.1,12.036c-1.68,1.581-3.604,2.255-5.709,2.255h-0.004c-3.676,0-6.543-2.397-6.661-2.504
					L313.208,43.696z"/>
				<path d="M321.095,31.053c0.414-0.414,1.018-0.583,1.585-0.449c0.023,0.008,2.492,0.595,5.288,0.595
					c2.046,0,4.796-0.319,6.31-1.83c4.491-4.487,4.452-9.16,3.864-11.893l-7.343,7.789c-0.6,0.635-1.589,0.706-2.275,0.157
					l-7.011-5.607c-0.362-0.292-0.588-0.722-0.627-1.187c-0.036-0.461,0.122-0.923,0.438-1.266l7.452-8.127
					c-0.714-0.142-1.558-0.245-2.469-0.245c-3.162,0-5.892,1.223-8.11,3.636c-3.574,3.884-1.09,10.836-1.066,10.907
					c0.237,0.635,0.064,1.349-0.438,1.81l-5.536,5.123l-0.339-0.367c0.678-0.639,0.706-1.703,0.071-2.377l-0.801-0.848l3.546-3.28
					c-0.695-2.548-1.881-8.936,2.082-13.242c2.843-3.091,6.506-4.728,10.591-4.728c3.497,0,6.116,1.203,6.223,1.254
					c0.489,0.229,0.836,0.67,0.942,1.199c0.104,0.524-0.047,1.068-0.41,1.467l-8.04,8.766l4.393,3.517l8.194-8.687
					c0.366-0.395,0.907-0.588,1.447-0.517c0.536,0.075,1.006,0.398,1.262,0.879c0.047,0.095,4.973,9.614-3.663,18.25
					c-1.865,1.865-4.788,2.812-8.688,2.812c-0.663,0-1.306-0.028-1.912-0.072h-0.005l-3.248-2.709
					c-0.687-0.575-1.7-0.516-2.307,0.134l-0.131-0.13L321.095,31.053z"/>
				<path d="M311.157,30.466l-20.563,19.038c-0.293,0.761-0.998,3.146,0.729,5.221c1.005,1.207,2.247,1.814,3.698,1.814
					c0.248,0,0.461-0.016,0.627-0.04l24.717-24.712l0.131,0.13l-8.136,8.684c-0.623,0.663-0.599,1.676,0.052,2.314l0.796,0.781
					l-15.536,15.541c-0.193,0.193-0.434,0.335-0.698,0.417c-0.134,0.044-0.875,0.252-1.952,0.252c-2.426,0-4.652-1.072-6.281-3.028
					c-3.471-4.165-1.155-8.92-1.057-9.121c0.094-0.181,0.213-0.343,0.362-0.481l19.571-18.115l0.823,0.872
					c0.331,0.351,0.776,0.528,1.224,0.528c0.417,0,0.831-0.153,1.154-0.461L311.157,30.466z"/>
				<path d="M310.89,27.722c0.635,0.674,0.606,1.739-0.071,2.377c-0.323,0.308-0.737,0.461-1.154,0.461
					c-0.447,0-0.893-0.177-1.224-0.528l-0.823-0.872l2.472-2.288L310.89,27.722z"/>
				<path d="M301.753,18.053l8.336,8.821l-2.472,2.288l-7.352-7.784c0.88-0.055,1.578-0.824,1.578-1.72
					c0-0.134-0.016-0.303-0.047-0.433L301.753,18.053z"/>
				<path d="M301.797,19.224c0.031,0.13,0.047,0.299,0.047,0.433c0,0.896-0.698,1.665-1.578,1.72l-1.359-1.439
					c-0.639-0.678-0.607-1.743,0.066-2.382c0.674-0.635,1.739-0.607,2.378,0.071l0.402,0.426L301.797,19.224z"/>
				<path d="M298.381,17.907l-0.181-5.02l-6.286-4.161l-2.791,2.693l4.333,6.487H298.381z M300.266,21.377
					c-0.035,0.004-0.07,0.004-0.105,0.004c-0.009,0-0.02,0.075-0.031,0.075h-7.572c-0.564,0-1.088-0.355-1.403-0.824l-5.607-8.454
					c-0.449-0.675-0.354-1.593,0.229-2.157l4.767-4.638c0.568-0.551,1.444-0.638,2.104-0.201l8.135,5.399
					c0.449,0.299,0.729,0.796,0.748,1.34l0.226,6.132l-0.402-0.426c-0.639-0.678-1.704-0.706-2.378-0.071
					c-0.674,0.639-0.705,1.704-0.066,2.382L300.266,21.377z"/>
			</g>
		</g>
	</g>
</g>
<g>
	<g>
		<g id="XMLID_1_">
			<g>
				<path fill="#FFFFFF" d="M338.986,49.678c0.51,0.611,3.325,4.247,0.031,7.35c-0.523,0.493-1.068,0.839-1.633,1.065
					c-0.563,0.225-1.15,0.327-1.77,0.327c-2.348,0-4.357-1.869-4.365-1.869l-15.375-14.977l5.926-6.199L338.986,49.678z"/>
				<polygon fill="#FFFFFF" points="298.134,12.887 298.316,17.907 293.391,17.907 289.057,11.42 291.849,8.727 				"/>
				<path fill="#FFFFFF" d="M338.075,17.477c0.588,2.733,0.628,7.406-3.864,11.893c-1.514,1.511-4.263,1.83-6.309,1.83
					c-2.797,0-5.266-0.587-5.288-0.595c-0.567-0.134-1.171,0.036-1.587,0.449l-0.729,0.734L295.582,56.5
					c-0.165,0.024-0.379,0.04-0.627,0.04c-1.451,0-2.693-0.608-3.699-1.814c-1.727-2.074-1.021-4.46-0.729-5.221l20.564-19.038
					l5.537-5.123c0.501-0.461,0.673-1.175,0.437-1.81c-0.023-0.071-2.508-7.023,1.064-10.907c2.221-2.413,4.949-3.636,8.111-3.636
					c0.912,0,1.755,0.103,2.469,0.245l-7.453,8.127c-0.314,0.343-0.473,0.805-0.438,1.266c0.04,0.465,0.265,0.895,0.628,1.187
					l7.011,5.607c0.686,0.548,1.676,0.478,2.275-0.157L338.075,17.477z"/>
				<path d="M322.736,31.783l3.249,2.709c-1.329-0.103-2.468-0.28-3.222-0.418l-9.621,9.622l-0.797-0.781
					c-0.65-0.639-0.674-1.652-0.051-2.314l8.135-8.684C321.037,31.267,322.051,31.207,322.736,31.783z"/>
				<path d="M313.143,43.696l9.621-9.622c0.754,0.138,1.893,0.315,3.222,0.418h0.004l15.257,12.721
					c0.063,0.052,0.122,0.11,0.177,0.173c2.027,2.268,4.618,7.594-0.098,12.036c-1.681,1.581-3.604,2.255-5.71,2.255h-0.004
					c-3.676,0-6.543-2.397-6.66-2.504L313.143,43.696z M321.801,35.375l-5.926,6.199l15.375,14.977c0.008,0,2.018,1.869,4.365,1.869
					c0.619,0,1.207-0.103,1.77-0.327c0.564-0.226,1.109-0.572,1.633-1.065c3.294-3.104,0.479-6.739-0.031-7.35L321.801,35.375z"/>
				<path d="M321.029,31.053c0.414-0.414,1.018-0.583,1.585-0.449c0.023,0.008,2.491,0.595,5.288,0.595
					c2.046,0,4.795-0.319,6.309-1.83c4.492-4.487,4.453-9.16,3.865-11.893l-7.344,7.789c-0.598,0.635-1.588,0.706-2.275,0.157
					l-7.01-5.607c-0.363-0.292-0.588-0.722-0.627-1.187c-0.036-0.461,0.121-0.923,0.437-1.266l7.452-8.127
					c-0.713-0.142-1.557-0.245-2.467-0.245c-3.164,0-5.892,1.223-8.112,3.636c-3.573,3.884-1.089,10.836-1.064,10.907
					c0.235,0.635,0.063,1.349-0.438,1.81l-5.536,5.123l-0.34-0.367c0.679-0.639,0.706-1.703,0.071-2.377l-0.8-0.848l3.545-3.28
					c-0.694-2.548-1.881-8.936,2.082-13.242c2.843-3.091,6.506-4.728,10.592-4.728c3.498,0,6.116,1.203,6.221,1.254
					c0.49,0.229,0.836,0.67,0.943,1.199c0.104,0.524-0.047,1.068-0.409,1.467l-8.04,8.766l4.393,3.517l8.193-8.687
					c0.367-0.395,0.907-0.588,1.448-0.517c0.535,0.075,1.005,0.398,1.262,0.879c0.047,0.095,4.972,9.614-3.663,18.25
					c-1.865,1.865-4.787,2.812-8.688,2.812c-0.663,0-1.307-0.028-1.913-0.072h-0.004l-3.249-2.709
					c-0.686-0.575-1.699-0.516-2.307,0.134l-0.131-0.13L321.029,31.053z"/>
				<path d="M295.582,56.5l24.717-24.712l0.131,0.13l-8.135,8.684c-0.623,0.663-0.601,1.676,0.051,2.314l0.797,0.781l-15.537,15.541
					c-0.193,0.192-0.434,0.335-0.698,0.418c-0.134,0.043-0.875,0.252-1.952,0.252c-2.424,0-4.652-1.073-6.281-3.029
					c-3.471-4.165-1.156-8.919-1.057-9.121c0.094-0.181,0.213-0.343,0.362-0.481l19.571-18.115l0.823,0.872
					c0.331,0.351,0.778,0.528,1.224,0.528c0.417,0,0.831-0.153,1.154-0.461l0.34,0.367l-20.564,19.039
					c-0.292,0.761-0.998,3.147,0.729,5.221c1.006,1.207,2.247,1.814,3.698,1.814C295.205,56.54,295.417,56.523,295.582,56.5z"/>
				<path d="M310.823,27.722c0.635,0.674,0.607,1.739-0.071,2.377c-0.323,0.308-0.737,0.461-1.154,0.461
					c-0.445,0-0.893-0.177-1.224-0.528l-0.823-0.872l2.473-2.288L310.823,27.722z"/>
				<path d="M301.688,18.053l8.336,8.821l-2.473,2.288l-7.351-7.784c0.878-0.055,1.577-0.824,1.577-1.72
					c0-0.134-0.016-0.303-0.047-0.433L301.688,18.053z"/>
				<path d="M301.73,19.224c0.031,0.13,0.047,0.299,0.047,0.433c0,0.896-0.699,1.665-1.577,1.72l-1.36-1.439
					c-0.639-0.678-0.607-1.743,0.066-2.382c0.675-0.635,1.739-0.607,2.379,0.071l0.402,0.426L301.73,19.224z"/>
				<path d="M298.316,17.907l-0.183-5.02l-6.285-4.161l-2.792,2.693l4.334,6.487H298.316z M298.84,19.938l1.36,1.439
					c-0.036,0.004-0.071,0.004-0.106,0.004c-0.008,0-0.02,0.075-0.031,0.075h-7.571c-0.564,0-1.089-0.355-1.404-0.824l-5.607-8.454
					c-0.45-0.675-0.354-1.593,0.229-2.157l4.768-4.638c0.567-0.552,1.443-0.639,2.102-0.201l8.136,5.399
					c0.449,0.299,0.729,0.796,0.748,1.34l0.225,6.132l-0.402-0.426c-0.638-0.678-1.703-0.706-2.377-0.071
					C298.232,18.194,298.201,19.259,298.84,19.938z"/>
			</g>
		</g>
	</g>
</g>
<g>
	<g>
		<g id="XMLID_2_">
			<g>
				<path fill="#157895" d="M99.052,49.678c0.509,0.611,3.325,4.247,0.032,7.35c-0.524,0.493-1.068,0.839-1.632,1.065
					c-0.564,0.225-1.152,0.327-1.771,0.327c-2.346,0-4.357-1.869-4.365-1.869L75.941,41.574l5.927-6.199L99.052,49.678z"/>
				<polygon fill="#157895" points="58.2,12.887 58.381,17.907 53.456,17.907 49.123,11.42 51.914,8.727 				"/>
				<path fill="#157895" d="M98.142,17.477c0.588,2.733,0.627,7.406-3.865,11.893c-1.514,1.511-4.263,1.83-6.309,1.83
					c-2.795,0-5.264-0.587-5.288-0.595c-0.568-0.134-1.171,0.036-1.585,0.449l-0.729,0.734L55.648,56.5
					c-0.166,0.024-0.378,0.04-0.626,0.04c-1.451,0-2.694-0.608-3.699-1.814c-1.728-2.074-1.022-4.46-0.729-5.221l20.563-19.038
					l5.537-5.123c0.501-0.461,0.674-1.175,0.438-1.81c-0.023-0.071-2.508-7.023,1.065-10.907c2.22-2.413,4.949-3.636,8.111-3.636
					c0.911,0,1.755,0.103,2.469,0.245l-7.453,8.127c-0.316,0.343-0.474,0.805-0.438,1.266c0.039,0.465,0.264,0.895,0.627,1.187
					l7.011,5.607c0.686,0.548,1.676,0.478,2.275-0.157L98.142,17.477z"/>
				<path d="M82.802,31.783l3.249,2.709c-1.329-0.103-2.469-0.28-3.222-0.418l-9.622,9.622l-0.796-0.781
					c-0.65-0.639-0.674-1.652-0.051-2.314l8.135-8.684C81.103,31.267,82.116,31.207,82.802,31.783z"/>
				<path d="M81.868,35.375l-5.927,6.199l15.375,14.977c0.008,0,2.019,1.869,4.365,1.869c0.619,0,1.207-0.103,1.771-0.327
					c0.564-0.226,1.108-0.572,1.632-1.065c3.293-3.104,0.477-6.739-0.032-7.35L81.868,35.375z M73.208,43.696l9.622-9.622
					c0.753,0.138,1.893,0.315,3.222,0.418h0.004l15.256,12.721c0.063,0.052,0.122,0.11,0.178,0.173
					c2.026,2.268,4.617,7.594-0.099,12.036c-1.68,1.581-3.604,2.255-5.71,2.255h-0.004c-3.675,0-6.542-2.397-6.661-2.504
					L73.208,43.696z"/>
				<path d="M81.095,31.053c0.414-0.414,1.018-0.583,1.585-0.449c0.023,0.008,2.492,0.595,5.288,0.595
					c2.046,0,4.795-0.319,6.309-1.83c4.492-4.487,4.453-9.16,3.865-11.893l-7.342,7.789c-0.6,0.635-1.589,0.706-2.275,0.157
					l-7.011-5.607c-0.363-0.292-0.588-0.722-0.627-1.187c-0.036-0.461,0.122-0.923,0.438-1.266l7.453-8.127
					c-0.714-0.142-1.558-0.245-2.469-0.245c-3.162,0-5.891,1.223-8.111,3.636c-3.573,3.884-1.089,10.836-1.065,10.907
					c0.237,0.635,0.063,1.349-0.438,1.81l-5.537,5.123l-0.339-0.367c0.678-0.639,0.706-1.703,0.071-2.377l-0.801-0.848l3.545-3.28
					c-0.694-2.548-1.881-8.936,2.082-13.242c2.843-3.091,6.506-4.728,10.591-4.728c3.498,0,6.116,1.203,6.223,1.254
					c0.489,0.229,0.836,0.67,0.942,1.199c0.103,0.524-0.047,1.068-0.41,1.467l-8.04,8.766l4.393,3.517l8.194-8.687
					c0.366-0.395,0.907-0.588,1.447-0.517c0.537,0.075,1.006,0.398,1.262,0.879c0.047,0.095,4.973,9.614-3.663,18.25
					c-1.865,1.865-4.788,2.812-8.688,2.812c-0.663,0-1.306-0.028-1.912-0.072h-0.004l-3.249-2.709
					c-0.686-0.575-1.7-0.516-2.307,0.134l-0.13-0.13L81.095,31.053z"/>
				<path d="M71.157,30.466L50.594,49.504c-0.292,0.761-0.998,3.146,0.729,5.221c1.005,1.207,2.248,1.814,3.699,1.814
					c0.248,0,0.461-0.016,0.626-0.04l24.717-24.712l0.13,0.13l-8.135,8.684c-0.623,0.663-0.599,1.676,0.051,2.314l0.796,0.781
					L57.672,59.236c-0.194,0.193-0.434,0.335-0.698,0.417c-0.134,0.044-0.875,0.252-1.952,0.252c-2.426,0-4.653-1.072-6.282-3.028
					c-3.47-4.165-1.155-8.92-1.057-9.121c0.095-0.181,0.213-0.343,0.363-0.481l19.571-18.115l0.824,0.872
					c0.332,0.351,0.777,0.528,1.223,0.528c0.417,0,0.832-0.153,1.155-0.461L71.157,30.466z"/>
				<path d="M70.89,27.722c0.635,0.674,0.607,1.739-0.071,2.377c-0.323,0.308-0.737,0.461-1.155,0.461
					c-0.446,0-0.892-0.177-1.223-0.528l-0.824-0.872l2.472-2.288L70.89,27.722z"/>
				<path d="M61.753,18.053l8.336,8.821l-2.472,2.288l-7.351-7.784c0.879-0.055,1.577-0.824,1.577-1.72
					c0-0.134-0.016-0.303-0.047-0.433L61.753,18.053z"/>
				<path d="M61.796,19.224c0.031,0.13,0.047,0.299,0.047,0.433c0,0.896-0.698,1.665-1.577,1.72l-1.36-1.439
					c-0.639-0.678-0.607-1.743,0.067-2.382c0.674-0.635,1.739-0.607,2.377,0.071l0.402,0.426L61.796,19.224z"/>
				<path d="M58.381,17.907l-0.181-5.02l-6.286-4.161l-2.792,2.693l4.333,6.487H58.381z M60.266,21.377
					c-0.036,0.004-0.071,0.004-0.106,0.004c-0.008,0-0.02,0.075-0.031,0.075h-7.572c-0.564,0-1.088-0.355-1.403-0.824l-5.607-8.454
					c-0.449-0.675-0.355-1.593,0.229-2.157l4.767-4.638c0.568-0.551,1.444-0.638,2.103-0.201l8.135,5.399
					c0.449,0.299,0.729,0.796,0.749,1.34l0.225,6.132l-0.402-0.426c-0.639-0.678-1.704-0.706-2.377-0.071
					c-0.675,0.639-0.706,1.704-0.067,2.382L60.266,21.377z"/>
			</g>
		</g>
	</g>
</g>
<g id="Layer_2" display="none">
	<g display="inline">
		<g>
			<g id="XMLID_3_">
				<g>
					<path d="M346.07,77.32l-16.852,9.16l9.881,17.47l-17.261-0.78l-0.108,1.76l-6.271,0.17l-0.35-0.02l0.55-8.8l11.819,0.54
						l-7.199-12.74c0.029-0.09,0.06-0.19,0.08-0.29l13.358-7.26l-11.46-8.3l7.04-11.56l-14.5-1.14l-0.34-11.86l-11.729,5.37
						l-9.261-13.77l-8.75,11.25L271,41.11v13.34l-13.561,1.42l7.49,12.46l-11.791,10.32l13.021,5.79l-5.26,13.42l13.5-0.59
						l0.209,9.47h-0.141l-6.46-0.15l-0.06-2.43l-16.9,0.729l6.65-16.979L241,80.49l15.34-13.47L246.2,50.4l17.8-1.89V31.45
						l18.37,7.15l11.51-14.52l11.19,16.63l15.68-7.19l0.48,15.9l19.278,1.5l-9.45,15.54L346.07,77.32z"/>
					<path fill="#FFFFFF" d="M333.721,76.53l-13.359,7.26c0.67-2.39,1.029-4.92,1.029-7.52c0-2.61-0.359-5.13-1.029-7.52l1.898-0.52
						L333.721,76.53z"/>
					<path fill="#FFFFFF" d="M329.3,56.67l-7.04,11.56l-1.898,0.52c-2.461-8.89-9.211-16.02-17.86-19.02l0.229-0.69l11.729-5.37
						l0.34,11.86L329.3,56.67z"/>
					<path fill="#FFFFFF" d="M320.279,84.08l7.201,12.74l-11.82-0.54l-0.551,8.8l-0.359,5.77l-12.46-4.93l-7.569,11.35
						l-9.301-11.619l-10.729,4.399l-0.08-3.31l-0.211-9.47l0.131-0.15c4.979,4.5,11.568,7.229,18.779,7.229
						C306.09,104.35,316.891,95.78,320.279,84.08z"/>
					<polygon points="322.05,104.92 323.891,173.68 294.01,150.52 266.391,172.85 267.87,106.59 268.01,106.59 268.32,119.8 
						274.23,117.37 273.311,158.77 293.93,142.109 316.92,159.92 315.811,118.359 320.77,120.32 321.73,104.93 					"/>
					<polygon points="321.73,104.93 320.77,120.32 315.811,118.359 315.46,105.1 					"/>
					<path d="M320.359,68.75c0.67,2.39,1.029,4.91,1.029,7.52c0,2.6-0.359,5.13-1.029,7.52l-0.189,0.1l0.109,0.19
						c-3.391,11.7-14.189,20.27-26.971,20.27c-7.209,0-13.8-2.729-18.779-7.229c-3.76-3.38-6.609-7.78-8.109-12.75
						c-0.77-2.56-1.189-5.28-1.189-8.1c0-2.62,0.359-5.16,1.039-7.57c3.312-11.83,14.182-20.52,27.041-20.52
						c3.221,0,6.311,0.54,9.189,1.55C311.15,52.73,317.9,59.86,320.359,68.75z M314.79,76.27c0-11.85-9.63-21.49-21.479-21.49
						c-11.851,0-21.479,9.64-21.479,21.49c0,11.84,9.63,21.48,21.479,21.48S314.79,88.11,314.79,76.27z"/>
					<path d="M320.359,83.79c-0.021,0.1-0.051,0.2-0.08,0.29l-0.109-0.19L320.359,83.79z"/>
					<polygon points="315.46,105.1 315.811,118.359 304.82,114.02 295.21,128.439 283.359,113.63 274.23,117.37 274.471,106.74 
						274.609,106.74 274.689,110.05 285.42,105.65 294.721,117.27 302.29,105.92 314.75,110.85 315.109,105.08 					"/>
					<path fill="#FFFFFF" d="M293.311,54.78c11.851,0,21.479,9.64,21.479,21.49c0,11.84-9.63,21.48-21.479,21.48
						c-11.851,0-21.479-9.64-21.479-21.48C271.83,64.42,281.46,54.78,293.311,54.78z"/>
					<path fill="#FFFFFF" d="M293.471,35.27l9.26,13.77l-0.229,0.69c-2.88-1.01-5.97-1.55-9.19-1.55
						c-12.858,0-23.729,8.69-27.039,20.52l-1.34-0.37l-7.49-12.46L271,54.45V41.11l13.721,5.41L293.471,35.27z"/>
					<path fill="#FFFFFF" d="M274.529,97.12l-0.129,0.15l-13.5,0.59l5.26-13.42l0.26-0.07C267.92,89.34,270.77,93.74,274.529,97.12z
						"/>
					<polygon points="274.471,106.74 274.23,117.37 268.32,119.8 268.01,106.59 					"/>
					<path fill="#FFFFFF" d="M266.42,84.37l-0.26,0.07l-13.021-5.79l11.791-10.32l1.34,0.37c-0.681,2.41-1.039,4.95-1.039,7.57
						C265.23,79.09,265.65,81.81,266.42,84.37z"/>
				</g>
			</g>
		</g>
	</g>
	<g display="inline">
		<g>
			<g id="XMLID_4_">
				<g>
					<path d="M150.07,77.32l-16.85,9.16l9.88,17.47l-17.26-0.78l-0.11,1.76l-6.27,0.17l-0.35-0.02l0.55-8.8l11.82,0.54l-7.2-12.74
						c0.03-0.09,0.06-0.19,0.08-0.29l13.36-7.26l-11.46-8.3l7.04-11.56l-14.5-1.14l-0.34-11.86l-11.73,5.37l-9.26-13.77l-8.75,11.25
						L75,41.11v13.34l-13.56,1.42l7.49,12.46L57.14,78.65l13.02,5.79L64.9,97.86l13.5-0.59l0.21,9.47h-0.14l-6.46-0.15l-0.06-2.43
						l-16.9,0.729L61.7,87.91L45,80.49l15.34-13.47L50.2,50.4L68,48.51V31.45l18.37,7.15l11.51-14.52l11.19,16.63l15.68-7.19
						l0.48,15.9l19.28,1.5l-9.45,15.54L150.07,77.32z"/>
					<path fill="#F7CA7C" d="M137.72,76.53l-13.36,7.26c0.67-2.39,1.03-4.92,1.03-7.52c0-2.61-0.36-5.13-1.03-7.52l1.9-0.52
						L137.72,76.53z"/>
					<path fill="#F7CA7C" d="M133.3,56.67l-7.04,11.56l-1.9,0.52c-2.46-8.89-9.21-16.02-17.86-19.02l0.23-0.69l11.73-5.37
						l0.34,11.86L133.3,56.67z"/>
					<path fill="#F7CA7C" d="M124.28,84.08l7.2,12.74l-11.82-0.54l-0.55,8.8l-0.36,5.77l-12.46-4.93l-7.57,11.35l-9.3-11.619
						l-10.73,4.399l-0.08-3.31l-0.21-9.47l0.13-0.15c4.98,4.5,11.57,7.229,18.78,7.229C110.09,104.35,120.89,95.78,124.28,84.08z"/>
					<polygon points="126.05,104.92 127.89,173.68 98.01,150.52 70.39,172.85 71.87,106.59 72.01,106.59 72.32,119.8 78.23,117.37 
						77.31,158.77 97.93,142.109 120.92,159.92 119.81,118.359 124.77,120.32 125.73,104.93 					"/>
					<polygon points="125.73,104.93 124.77,120.32 119.81,118.359 119.46,105.1 					"/>
					<path d="M124.36,68.75c0.67,2.39,1.03,4.91,1.03,7.52c0,2.6-0.36,5.13-1.03,7.52l-0.19,0.1l0.11,0.19
						c-3.39,11.7-14.19,20.27-26.97,20.27c-7.21,0-13.8-2.729-18.78-7.229c-3.76-3.38-6.61-7.78-8.11-12.75
						c-0.77-2.56-1.19-5.28-1.19-8.1c0-2.62,0.36-5.16,1.04-7.57c3.31-11.83,14.18-20.52,27.04-20.52c3.22,0,6.31,0.54,9.19,1.55
						C115.15,52.73,121.9,59.86,124.36,68.75z M118.79,76.27c0-11.85-9.63-21.49-21.48-21.49s-21.48,9.64-21.48,21.49
						c0,11.84,9.63,21.48,21.48,21.48S118.79,88.11,118.79,76.27z"/>
					<path d="M124.36,83.79c-0.02,0.1-0.05,0.2-0.08,0.29l-0.11-0.19L124.36,83.79z"/>
					<polygon fill="#C04251" points="119.81,118.359 120.92,159.92 97.93,142.109 77.31,158.77 78.23,117.37 87.36,113.63 
						99.21,128.439 108.82,114.02 					"/>
					<polygon points="119.46,105.1 119.81,118.359 108.82,114.02 99.21,128.439 87.36,113.63 78.23,117.37 78.47,106.74 
						78.61,106.74 78.69,110.05 89.42,105.65 98.72,117.27 106.29,105.92 118.75,110.85 119.11,105.08 					"/>
					<path fill="#F7CA7C" d="M97.31,54.78c11.85,0,21.48,9.64,21.48,21.49c0,11.84-9.63,21.48-21.48,21.48s-21.48-9.64-21.48-21.48
						C75.83,64.42,85.46,54.78,97.31,54.78z"/>
					<path fill="#F7CA7C" d="M97.47,35.27l9.26,13.77l-0.23,0.69c-2.88-1.01-5.97-1.55-9.19-1.55c-12.86,0-23.73,8.69-27.04,20.52
						l-1.34-0.37l-7.49-12.46L75,54.45V41.11l13.72,5.41L97.47,35.27z"/>
					<path fill="#F7CA7C" d="M78.53,97.12l-0.13,0.15l-13.5,0.59l5.26-13.42l0.26-0.07C71.92,89.34,74.77,93.74,78.53,97.12z"/>
					<polygon points="78.47,106.74 78.23,117.37 72.32,119.8 72.01,106.59 					"/>
					<path fill="#F7CA7C" d="M70.42,84.37l-0.26,0.07l-13.02-5.79l11.79-10.32l1.34,0.37c-0.68,2.41-1.04,4.95-1.04,7.57
						C69.23,79.09,69.65,81.81,70.42,84.37z"/>
				</g>
			</g>
		</g>
	</g>
	<g display="inline">
		
			<image overflow="visible" opacity="0.75" enable-background="new    " width="117" height="166" xlink:href="7EAEEE47.png"  transform="matrix(0.9915 0 0 1 284.5 -165.9995)">
		</image>
	</g>
	<g display="inline">
		
			<image overflow="visible" opacity="0.75" enable-background="new    " width="117" height="166" xlink:href="7EAEEE45.png"  transform="matrix(0.9915 0 0 1 213.5 -165.9995)">
		</image>
	</g>
</g>
<g id="Layer_3" display="none">
	<g display="inline">
		<g>
			<g id="XMLID_5_">
				<g>
					<path fill="#FFFFFF" d="M362.82,86.79c0,29.81-25.87,52.29-61.521,53.44l-0.66,0.02c-4.63-0.01-11.33-1.41-16.709-2.529
						c-4.421-0.931-7.899-1.66-10.131-1.66c-2.109,0-3.64,0.709-4.529,2.109c-7.359,11.42-23.891,13.16-30.131,13.41L254.87,131
						c1.239-1.63,0.979-3.939-0.601-5.26c-12.471-10.33-19.34-24.17-19.34-38.95c0-30,28.689-54.4,63.949-54.4
						C334.13,32.39,362.82,56.79,362.82,86.79z M314.16,95.54L338.96,79h-30.54l-9.22-28.36L289.99,79h-30.5l24.74,16.61
						l-9.33,27.38l24.27-17.41l24.311,18.109L314.16,95.54z"/>
					<polygon fill="#FFFFFF" points="321.971,85 308.13,93.92 313.561,110 299.23,99.32 284.859,109.68 290.29,94.02 276.38,85 
						293.66,85 299.2,67.94 304.75,85 					"/>
					<path d="M370.46,86.79c0,34.101-28.979,59.78-68.91,61.08l-0.909,0.01c-5.421,0-12.551-1.489-18.279-2.688
						c-2.92-0.61-5.92-1.24-7.682-1.44c-10.488,14.36-31.09,15.5-37.31,15.5c-4.08,0-9.16,0-9.562-4.11
						c-0.129-1.279,0.41-2.779,1.812-3.67l17.01-22.27c-12.5-11.521-19.33-26.45-19.33-42.41c0-34.21,32.11-62.04,71.58-62.04
						S370.46,52.58,370.46,86.79z M301.3,140.23c35.65-1.15,61.521-23.631,61.521-53.44c0-30-28.689-54.4-63.939-54.4
						c-35.26,0-63.949,24.4-63.949,54.4c0,14.78,6.869,28.62,19.34,38.95c1.58,1.318,1.84,3.63,0.601,5.26l-15.729,20.58
						c6.239-0.25,22.771-1.99,30.129-13.41c0.892-1.4,2.422-2.109,4.53-2.109c2.23,0,5.71,0.729,10.13,1.66
						c5.381,1.119,12.08,2.52,16.711,2.529L301.3,140.23z"/>
					<path d="M338.96,79l-24.8,16.54l9.32,28.149l-24.312-18.109l-24.271,17.41l9.33-27.38L259.49,79h30.5l9.21-28.36L308.42,79
						H338.96z M308.13,93.92L321.971,85H304.75l-5.55-17.06L293.66,85h-17.28l13.91,9.02l-5.431,15.66l14.371-10.36l14.33,10.68
						L308.13,93.92z"/>
				</g>
			</g>
		</g>
	</g>
	<g display="inline">
		<g>
			<g id="XMLID_6_">
				<g>
					<path d="M171.96,86.79c0,34.101-28.98,59.78-68.91,61.08l-0.91,0.01c-5.42,0-12.55-1.489-18.28-2.688
						c-2.92-0.61-5.92-1.24-7.68-1.44c-10.49,14.36-31.09,15.5-37.31,15.5c-4.08,0-9.16,0-9.56-4.11
						c-0.13-1.279,0.41-2.779,1.81-3.67l17.01-22.27C35.63,117.68,28.8,102.75,28.8,86.79c0-34.21,32.11-62.04,71.58-62.04
						C139.85,24.75,171.96,52.58,171.96,86.79z M102.8,140.23c35.65-1.15,61.52-23.631,61.52-53.44c0-30-28.69-54.4-63.94-54.4
						c-35.26,0-63.95,24.4-63.95,54.4c0,14.78,6.87,28.62,19.34,38.95c1.58,1.318,1.84,3.63,0.6,5.26l-15.73,20.58
						c6.24-0.25,22.77-1.99,30.13-13.41c0.89-1.4,2.42-2.109,4.53-2.109c2.23,0,5.71,0.729,10.13,1.66
						c5.38,1.119,12.08,2.52,16.71,2.529L102.8,140.23z"/>
					<path fill="#157895" d="M164.32,86.79c0,29.81-25.87,52.29-61.52,53.44l-0.66,0.02c-4.63-0.01-11.33-1.41-16.71-2.529
						c-4.42-0.931-7.9-1.66-10.13-1.66c-2.11,0-3.64,0.709-4.53,2.109c-7.36,11.42-23.89,13.16-30.13,13.41L56.37,131
						c1.24-1.63,0.98-3.939-0.6-5.26c-12.47-10.33-19.34-24.17-19.34-38.95c0-30,28.69-54.4,63.95-54.4
						C135.63,32.39,164.32,56.79,164.32,86.79z M115.66,95.54L140.46,79h-30.54l-9.22-28.36L91.49,79h-30.5l24.74,16.61l-9.33,27.38
						l24.27-17.41l24.31,18.109L115.66,95.54z"/>
					<path d="M140.46,79l-24.8,16.54l9.32,28.149l-24.31-18.109L76.4,122.99l9.33-27.38L60.99,79h30.5l9.21-28.36L109.92,79H140.46z
						 M109.63,93.92L123.47,85h-17.22l-5.55-17.06L95.16,85H77.88l13.91,9.02l-5.43,15.66l14.37-10.36L115.06,110L109.63,93.92z"/>
					<polygon fill="#F7CA7C" points="123.47,85 109.63,93.92 115.06,110 100.73,99.32 86.36,109.68 91.79,94.02 77.88,85 95.16,85 
						100.7,67.94 106.25,85 					"/>
				</g>
			</g>
		</g>
	</g>
</g>
</svg>
