<?xml version="1.0" encoding="utf-8"?>
<!-- Generator: Adobe Illustrator 16.0.0, SVG Export Plug-In . SVG Version: 6.00 Build 0)  -->
<!DOCTYPE svg PUBLIC "-//W3C//DTD SVG 1.1//EN" "http://www.w3.org/Graphics/SVG/1.1/DTD/svg11.dtd">
<svg version="1.1" xmlns="http://www.w3.org/2000/svg" xmlns:xlink="http://www.w3.org/1999/xlink" x="0px" y="0px" width="100px"
	 height="100px" viewBox="0 0 100 100" enable-background="new 0 0 100 100" xml:space="preserve">
<g id="Layer_1" display="none">
	<circle display="inline" fill="#FFFFFF" cx="48.672" cy="40.079" r="28.935"/>
	<g display="inline">
		<g>
			<path d="M49,70c-16.681,0-30.25-13.57-30.25-30.25c0-13.713,9.248-25.739,22.487-29.245C43.756,9.838,46.369,9.5,49,9.5
				c16.68,0,30.25,13.57,30.25,30.25C79.25,56.43,65.68,70,49,70z M49,12.13c-2.405,0-4.791,0.309-7.09,0.917
				C29.822,16.249,21.38,27.229,21.38,39.75c0,15.229,12.391,27.62,27.62,27.62c15.229,0,27.62-12.391,27.62-27.62
				S64.229,12.13,49,12.13z"/>
		</g>
		<g>
			<rect x="52.256" y="9.541" transform="matrix(0.4992 0.8665 -0.8665 0.4992 40.1402 -38.7244)" width="2.631" height="11.645"/>
		</g>
		<g>
			<rect x="38.815" y="14.048" transform="matrix(0.8358 0.5491 -0.5491 0.8358 15.6795 -21.694)" width="10.579" height="2.631"/>
		</g>
		<g>
			<polygon points="38.387,37.97 36.763,35.9 48.626,26.607 60.629,34.978 59.123,37.136 48.716,29.876 			"/>
		</g>
		<g>
			<rect x="43.446" y="22.104" transform="matrix(0.0141 0.9999 -0.9999 0.0141 71.3285 -25.5041)" width="10.304" height="2.63"/>
		</g>
		<g>
			<rect x="59.083" y="56.841" transform="matrix(0.9441 0.3296 -0.3296 0.9441 23.8293 -16.4373)" width="2.631" height="10.457"/>
		</g>
		<g>
			<rect x="66.082" y="51.498" transform="matrix(0.0657 0.9978 -0.9978 0.0657 119.633 -14.1955)" width="2.631" height="10.579"/>
		</g>
		<g>
			<polygon points="41.842,50.981 41.742,48.354 54.909,47.848 58.617,35.673 61.136,36.44 56.879,50.405 			"/>
		</g>
		<g>
			<rect x="53.938" y="51.814" transform="matrix(0.6139 0.7894 -0.7894 0.6139 64.7225 -26.0661)" width="10.138" height="2.63"/>
		</g>
		<g>
			<rect x="32.977" y="41.986" transform="matrix(0.3144 0.9493 -0.9493 0.3144 68.313 -7.9837)" width="13.413" height="2.631"/>
		</g>
		<g>
			<rect x="20.888" y="28.127" transform="matrix(0.3366 0.9416 -0.9416 0.3366 45.0478 -5.0617)" width="10.458" height="2.63"/>
		</g>
		<g>
			<rect x="22.67" y="32.659" transform="matrix(0.6769 0.7361 -0.7361 0.6769 35.683 -5.3935)" width="2.63" height="10.577"/>
		</g>
		<g>
			<rect x="27.709" y="34.335" transform="matrix(0.9666 0.2561 -0.2561 0.9666 10.2226 -7.1928)" width="10.033" height="2.631"/>
		</g>
		<g>
			<rect x="68.186" y="32.818" transform="matrix(0.8586 0.5126 -0.5126 0.8586 27.8733 -32.8053)" width="10.458" height="2.63"/>
		</g>
		<g>
			<rect x="68.415" y="20.374" transform="matrix(0.9895 0.1446 -0.1446 0.9895 4.4849 -9.8115)" width="2.63" height="11.138"/>
		</g>
		<g>
			<rect x="63.086" y="28.679" transform="matrix(0.4537 0.8912 -0.8912 0.4537 65.2666 -38.9505)" width="2.631" height="10.153"/>
		</g>
		<g>
			<rect x="25.378" y="55.832" transform="matrix(0.9937 0.1118 -0.1118 0.9937 6.578 -3.0241)" width="9.758" height="2.63"/>
		</g>
		<g>
			<rect x="31.928" y="61.051" transform="matrix(0.3681 0.9298 -0.9298 0.3681 81.3387 5.0475)" width="10.056" height="2.629"/>
		</g>
		<g>
			<rect x="37.133" y="48.457" transform="matrix(0.7683 0.6401 -0.6401 0.7683 43.2651 -12.1731)" width="2.63" height="10.445"/>
		</g>
	</g>
</g>
<g id="Layer_2">
	<g>
		<g id="XMLID_1_">
			<g>
				<path d="M81.77,21.56c2.761,6.81,1.841,15.4-2.38,22.39c-4.58,7.59-27.97,25.29-28.959,26.04l-1.01,0.76l-1.01-0.76
					c-1-0.75-24.38-18.45-28.97-26.04c-4.22-6.99-5.13-15.58-2.38-22.39c2.02-5.02,5.91-8.51,10.93-9.85
					c2.45-0.65,4.79-0.98,6.97-0.98c8,0,12.37,4.39,14.46,7.48c2.08-3.09,6.45-7.48,14.46-7.48c2.18,0,4.521,0.33,6.96,0.98
					C75.87,13.05,79.75,16.54,81.77,21.56z M76.52,42.22C80.15,36.2,81,28.58,78.67,22.81c-1.15-2.83-3.59-6.5-8.689-7.86
					c-2.16-0.57-4.221-0.87-6.101-0.87c-9.92,0-12.85,8.1-12.88,8.18l-1.58,4.56l-1.59-4.56c-0.11-0.32-3.03-8.18-12.87-8.18
					c-1.89,0-3.94,0.3-6.11,0.87c-5.1,1.36-7.54,5.03-8.68,7.86c-2.33,5.77-1.49,13.39,2.14,19.41c3.75,6.2,22.52,20.81,27.11,24.32
					C54,63.03,72.78,48.42,76.52,42.22z"/>
				<path fill="#FFFFFF" d="M78.67,22.81c2.33,5.77,1.48,13.39-2.15,19.41C72.78,48.42,54,63.03,49.42,66.54
					c-4.59-3.51-23.36-18.12-27.11-24.32c-3.63-6.02-4.47-13.64-2.14-19.41c1.14-2.83,3.58-6.5,8.68-7.86
					c2.17-0.57,4.22-0.87,6.11-0.87c9.84,0,12.76,7.86,12.87,8.18l1.59,4.56L51,22.26c0.03-0.08,2.96-8.18,12.88-8.18
					c1.88,0,3.94,0.3,6.101,0.87C75.08,16.31,77.52,19.98,78.67,22.81z"/>
			</g>
		</g>
	</g>
</g>
<g id="Layer_3" display="none">
	<g display="inline">
		<g>
			<g id="XMLID_2_">
				<g>
					<path fill="#FFFFFF" d="M68.54,68H29.75c0.11-0.9,0.28-4.12,2.25-5.06C32.15,63.01,32.31,63,32.47,63H66
						C67.51,63.86,68.24,66.15,68.54,68z"/>
					<path fill="#FFFFFF" d="M66.77,53.42c0.461,0.2,1.82,0.87,1.761,3.34C68.51,58.13,67.27,60,66.51,60h-7.47
						c-1.81-0.05-4-0.08-6.65-0.1c-1.109-0.021-1.959-0.021-2.34-0.03c-0.08-0.021-0.18-0.04-0.26-0.03
						c-0.4,0-6.79,0.021-11.73,0.16h-5.28c-0.59,0-2.23-1.22-2.23-3.24c0-2.02,1.78-3.069,2.42-3.46l1.83,0.01
						c0.18,0.131,0.38,0.23,0.58,0.23L62.59,54h0.01c0.351,0,0.681-0.25,0.92-0.59L66.77,53.42z"/>
					<path d="M71.34,69.62c0.01,0.36-0.12,0.71-0.37,0.97S70.38,71,70.02,71H28.41c-0.7,0-1.28-0.54-1.32-1.24
						c-0.02-0.279-0.29-5.689,2.81-8.24c0.98,0.94,1.97,1.381,2.05,1.41c0.02,0.011,0.03,0.011,0.05,0.011
						C30.03,63.88,29.86,67.1,29.75,68h38.79c-0.3-1.85-1.03-4.14-2.54-5h1c0.29,0,0.57-0.05,0.8-0.23
						c0.101-0.079,0.44-0.34,0.87-0.76C71.01,64.56,71.31,69,71.34,69.62z"/>
					<path d="M67.34,50.94c1.36,0.37,3.92,2.12,3.83,6.1c-0.04,2.2-1.51,4-2.5,4.97c-0.58-0.64-1.29-1.16-2.16-1.479
						C65.78,60.26,63.66,60.1,59.04,60h7.47c0.76,0,2-1.87,2.021-3.24c0.06-2.47-1.3-3.14-1.761-3.34l-3.25-0.01
						c0.221-0.311,0.36-0.7,0.391-1.03c0.01-0.07,0.05-0.64,0.04-1.51L67,50.89C67.12,50.89,67.23,50.91,67.34,50.94z"/>
					<path d="M69.17,26.83c0.12,0.24,1.78,3.68-1.9,6.95c-1.149,1.03-2.51,1.57-3.909,1.57c-0.681,0-1.271-0.13-1.7-0.27
						c-0.42-0.14-0.7-0.28-0.75-0.31c-1.7-0.89-3.891-1.86-4.73-2.06c-0.54,0.37-1.109,0.65-1.66,0.86
						c1.851,1.45,4.421,3.71,6.4,6.42c2.6,3.56,3.01,8.44,3.03,10.88l-29.57-0.15c0.48-1.56,0.95-3.79,0.67-4.83
						c-0.04-0.09-0.14-0.31-0.27-0.57c-0.88-1.8-3.22-6.58-3.29-13.98c-0.08-9,5.24-12.03,8.76-14.03c1.49-0.85,2.77-1.58,2.8-2.3
						C43.22,9.06,51.23,7.08,51.57,7c0.42-0.1,0.85,0,1.18,0.28c0.32,0.28,0.48,0.7,0.44,1.13l-0.58,5.91
						c0.59,0.06,1.34,0.14,2.18,0.27C62.27,15.68,68.89,26.37,69.17,26.83z M65.51,31.81c2.19-1.95,1.36-3.69,1.351-3.7
						c-0.011-0.01-6.19-10-12.45-10.91c-1.891-0.28-3.29-0.35-3.311-0.35c-0.359-0.02-0.7-0.18-0.93-0.45
						c-0.24-0.28-0.35-0.64-0.32-1l0.52-5.22c-1.9,0.78-4.61,2.34-4.69,4.91c-0.06,2.2-2.04,3.32-4.13,4.51
						c-3.33,1.89-7.49,4.25-7.42,11.7c0.06,6.8,2.14,11.02,3.02,12.83c0.23,0.47,0.37,0.75,0.45,1.02c0.41,1.53-0.02,3.78-0.44,5.35
						l24.149,0.05c-0.02-2-0.369-6.05-2.529-9.01c-3.101-4.24-8.01-7.44-8.06-7.47c-0.48-0.31-0.7-0.9-0.56-1.45
						c0.15-0.55,0.63-0.95,1.21-0.98c0.01,0,2.05-0.14,3.56-1.27c0.29-0.22,0.641-0.33,1.051-0.33c1.409,0,4.789,1.69,6.18,2.41
						c0.02,0.01,0.51,0.26,1.2,0.26C64.12,32.71,64.84,32.41,65.51,31.81z"/>
					<path d="M49,62.48c-4,0.01-14.28-0.07-16.28,0.239c-0.26,0.04-0.5,0.12-0.72,0.221c-0.02,0-0.03,0-0.05-0.011
						c-0.08-0.029-1.07-0.47-2.05-1.41c0.74-0.6,1.66-1.039,2.81-1.22c0.86-0.13,2.93-0.229,5.35-0.3h20.98
						c4.62,0.1,6.74,0.26,7.47,0.53c0.87,0.319,1.58,0.84,2.16,1.479c-0.43,0.42-0.77,0.681-0.87,0.76C67.57,62.95,67.29,63,67,63
						h-1c-0.12-0.07-0.25-0.13-0.39-0.18c-1.15-0.34-9.94-0.34-13.24-0.37c-1.09-0.01-2.33,0.02-2.9-0.021
						C49.46,62.43,49,62.47,49,62.48z"/>
					<path fill="#FFFFFF" d="M66.86,28.11c0.01,0.01,0.84,1.75-1.351,3.7c-0.67,0.6-1.39,0.9-2.149,0.9c-0.69,0-1.181-0.25-1.2-0.26
						c-1.391-0.72-4.771-2.41-6.18-2.41c-0.41,0-0.761,0.11-1.051,0.33c-1.51,1.13-3.55,1.27-3.56,1.27
						c-0.58,0.03-1.06,0.43-1.21,0.98c-0.14,0.55,0.08,1.14,0.56,1.45c0.05,0.03,4.959,3.23,8.06,7.47
						c2.16,2.96,2.51,7.01,2.529,9.01L37.16,50.5c0.42-1.57,0.85-3.82,0.44-5.35c-0.08-0.27-0.22-0.55-0.45-1.02
						c-0.88-1.81-2.96-6.03-3.02-12.83c-0.07-7.45,4.09-9.81,7.42-11.7c2.09-1.19,4.07-2.31,4.13-4.51
						c0.08-2.57,2.79-4.13,4.69-4.91l-0.52,5.22c-0.03,0.36,0.08,0.72,0.32,1c0.23,0.27,0.57,0.43,0.93,0.45
						c0.021,0,1.42,0.07,3.311,0.35C60.67,18.11,66.85,28.1,66.86,28.11z"/>
					<path d="M66,63H32.47c-0.16,0-0.32,0.01-0.47-0.06c0.22-0.101,0.46-0.181,0.72-0.221C34.72,62.41,45,62.49,49,62.48
						c0-0.011,0.46-0.051,0.47-0.051c0.57,0.04,1.81,0.011,2.9,0.021c3.3,0.03,12.09,0.03,13.24,0.37C65.75,62.87,65.88,62.93,66,63
						z"/>
					<path d="M63.95,50.87c0.01,0.87-0.03,1.439-0.04,1.51c-0.03,0.33-0.17,0.72-0.391,1.03L34.8,53.31
						c-0.19-0.149-0.36-0.35-0.49-0.529c-0.25-0.351-0.31-0.9-0.17-1.3c0.08-0.23,0.16-0.48,0.24-0.76L63.95,50.87z"/>
					<path d="M63.52,53.41C63.28,53.75,62.95,54,62.6,54h-0.01l-27.21-0.46c-0.2,0-0.4-0.1-0.58-0.23L63.52,53.41z"/>
					<path d="M59.04,60H38.06c4.94-0.14,11.33-0.16,11.73-0.16c0.08-0.01,0.18,0.01,0.26,0.03c0.38,0.01,1.23,0.01,2.34,0.03
						C55.04,59.92,57.23,59.95,59.04,60z"/>
					<path d="M32.78,60h5.28c-2.42,0.07-4.49,0.17-5.35,0.3c-1.15,0.181-2.07,0.62-2.81,1.22c-1-0.949-1.99-2.42-1.99-4.529
						c0-4.141,3.99-6.08,4.16-6.16c0.18-0.08,0.39-0.11,0.58-0.12l1.73,0.01c-0.08,0.28-0.16,0.53-0.24,0.76
						c-0.14,0.399-0.08,0.949,0.17,1.3c0.13,0.18,0.3,0.38,0.49,0.529l-1.83-0.01c-0.64,0.391-2.42,1.44-2.42,3.46
						C30.55,58.78,32.19,60,32.78,60z"/>
				</g>
			</g>
		</g>
	</g>
</g>
<g id="Layer_4" display="none">
	<g display="inline">
		<g>
			<g id="XMLID_3_">
				<g>
					<path fill="#FFFFFF" d="M18.94,65.41c1.05,0,1.9,0.85,1.9,1.899c0,1.04-0.85,1.891-1.9,1.891c-1.04,0-1.89-0.851-1.89-1.891
						C17.05,66.26,17.9,65.41,18.94,65.41z"/>
					<path fill="#FFFFFF" d="M18.94,40.74c1.05,0,1.9,0.85,1.9,1.9c0,1.04-0.85,1.89-1.9,1.89c-1.04,0-1.89-0.85-1.89-1.89
						C17.05,41.59,17.9,40.74,18.94,40.74z"/>
					<path fill="#FFFFFF" d="M18.94,16.07c1.05,0,1.9,0.85,1.9,1.89c0,1.05-0.85,1.9-1.9,1.9c-1.04,0-1.89-0.85-1.89-1.9
						C17.05,16.92,17.9,16.07,18.94,16.07z"/>
					<path d="M82.99,18c1.05,0,1.899,0.95,1.899,2s-0.85,2-1.899,2H29.86c-1.05,0-1.9-0.95-1.9-2s0.85-2,1.9-2H82.99z"/>
					<path d="M82.99,43c1.05,0,1.899,0.95,1.899,2s-0.85,2-1.899,2H29.86c-1.05,0-1.9-0.95-1.9-2s0.85-2,1.9-2H82.99z"/>
					<path d="M82.99,67c1.05,0,1.899,0.95,1.899,2s-0.85,2-1.899,2H29.86c-1.05,0-1.9-0.95-1.9-2s0.85-2,1.9-2H82.99z"/>
					<path d="M18.94,12.27c3.14,0,5.7,2.56,5.7,5.69c0,3.14-2.56,5.7-5.7,5.7s-5.69-2.56-5.69-5.7
						C13.25,14.83,15.8,12.27,18.94,12.27z M20.84,17.96c0-1.04-0.85-1.89-1.9-1.89c-1.04,0-1.89,0.85-1.89,1.89
						c0,1.05,0.85,1.9,1.89,1.9C19.99,19.86,20.84,19.01,20.84,17.96z"/>
					<path d="M18.94,36.94c3.14,0,5.7,2.56,5.7,5.7c0,3.14-2.56,5.69-5.7,5.69s-5.69-2.55-5.69-5.69
						C13.25,39.5,15.8,36.94,18.94,36.94z M20.84,42.64c0-1.05-0.85-1.9-1.9-1.9c-1.04,0-1.89,0.85-1.89,1.9
						c0,1.04,0.85,1.89,1.89,1.89C19.99,44.53,20.84,43.68,20.84,42.64z"/>
					<path d="M18.94,61.61c3.14,0,5.7,2.56,5.7,5.699c0,3.141-2.56,5.69-5.7,5.69s-5.69-2.55-5.69-5.69
						C13.25,64.17,15.8,61.61,18.94,61.61z M20.84,67.31c0-1.05-0.85-1.899-1.9-1.899c-1.04,0-1.89,0.85-1.89,1.899
						c0,1.04,0.85,1.891,1.89,1.891C19.99,69.2,20.84,68.35,20.84,67.31z"/>
				</g>
			</g>
		</g>
	</g>
</g>
<g id="Layer_5" display="none">
	<g display="inline">
		<g>
			<g id="XMLID_4_">
				<g>
					<path fill="#FFFFFF" d="M78.111,59.724c0.583,0.695,3.785,4.879,0.031,8.408c-1.187,1.125-2.455,1.667-3.867,1.667
						c-2.67,0-4.951-1.964-4.961-1.964L51.822,50.649l6.741-7.211L78.111,59.724z"/>
					<path fill="#FFFFFF" d="M77.078,23.061c0.665,3.11,0.706,8.419-4.398,13.523c-1.719,1.719-4.849,2.077-7.171,2.077
						c-3.182,0-5.984-0.665-6.015-0.665c-0.645-0.153-1.33,0.031-1.801,0.501l-0.839,0.839l-28.11,28.11
						c-0.184,0.021-0.43,0.041-0.716,0.041c-1.647,0-3.059-0.686-4.205-2.066c-1.964-2.353-1.166-5.063-0.829-5.933L46.39,37.842
						l6.292-5.831c0.572-0.532,0.767-1.34,0.501-2.066c-0.031-0.082-2.854-7.989,1.207-12.398c2.526-2.751,5.626-4.143,9.227-4.143
						c1.044,0,1.995,0.123,2.803,0.286l-8.47,9.237c-0.357,0.389-0.542,0.911-0.501,1.442s0.307,1.013,0.716,1.35l7.979,6.373
						c0.777,0.634,1.902,0.552,2.588-0.174L77.078,23.061z"/>
					<path d="M78.111,59.724L58.563,43.438l-6.741,7.211l17.492,17.186c0.01,0,2.291,1.964,4.961,1.964
						c1.412,0,2.681-0.542,3.867-1.667C81.896,64.603,78.694,60.419,78.111,59.724z M59.668,41.934
						c0.849,0.164,2.138,0.368,3.652,0.481L80.68,56.879c0.081,0.062,0.143,0.134,0.204,0.205c2.312,2.578,5.248,8.695-0.112,13.748
						c-1.913,1.801-4.103,2.619-6.496,2.619c-4.184,0-7.437-2.782-7.58-2.905L48.702,52.9L59.668,41.934z"/>
					<path d="M47.812,52.021c-0.736-0.727-0.767-1.893-0.062-2.649l9.257-9.882c0.686-0.736,1.842-0.808,2.619-0.153l3.693,3.079
						c-1.515-0.113-2.804-0.317-3.652-0.481L48.702,52.9L47.812,52.021z"/>
					<path d="M43.301,37.341c0.368,0.399,0.88,0.604,1.381,0.604c0.481,0,0.952-0.174,1.32-0.522l0.389,0.419L22.995,59.488
						c-0.337,0.869-1.135,3.58,0.829,5.933c1.146,1.381,2.558,2.066,4.205,2.066c0.286,0,0.532-0.021,0.716-0.041l28.11-28.11
						l0.153,0.153l-9.257,9.882c-0.706,0.757-0.675,1.923,0.062,2.649l0.89,0.88L31.046,70.557c-0.225,0.225-0.491,0.389-0.788,0.48
						c-0.164,0.041-1.002,0.286-2.23,0.286c-2.752,0-5.289-1.228-7.14-3.447c-3.949-4.736-1.32-10.147-1.208-10.373
						c0.113-0.204,0.246-0.398,0.419-0.552l22.26-20.603L43.301,37.341z"/>
					<path d="M52.682,32.012l-6.292,5.831l-0.389-0.419c0.767-0.726,0.798-1.943,0.082-2.711l-0.91-0.961l4.03-3.734
						c-0.788-2.895-2.138-10.168,2.363-15.068c3.242-3.509,7.406-5.371,12.05-5.371c3.979,0,6.956,1.371,7.079,1.422
						c0.553,0.266,0.951,0.768,1.074,1.371c0.112,0.593-0.062,1.207-0.471,1.657l-9.146,9.984l5.003,4l9.318-9.882
						c0.42-0.45,1.033-0.675,1.647-0.593c0.604,0.082,1.136,0.46,1.432,1.002c0.052,0.103,5.657,10.936-4.163,20.756
						c-2.128,2.118-5.452,3.202-9.882,3.202c-0.757,0-1.493-0.031-2.188-0.082l-3.693-3.079c-0.777-0.655-1.934-0.583-2.619,0.153
						l-0.153-0.153l0.839-0.839c0.471-0.471,1.156-0.655,1.801-0.501c0.03,0,2.833,0.665,6.015,0.665
						c2.322,0,5.452-0.358,7.171-2.077c5.104-5.104,5.063-10.414,4.398-13.523l-8.347,8.859c-0.686,0.726-1.811,0.808-2.588,0.174
						l-7.979-6.373c-0.409-0.337-0.675-0.818-0.716-1.35s0.144-1.054,0.501-1.442l8.47-9.237c-0.808-0.164-1.759-0.286-2.803-0.286
						c-3.601,0-6.7,1.391-9.227,4.143c-4.061,4.409-1.238,12.316-1.207,12.398C53.448,30.671,53.254,31.479,52.682,32.012z"/>
					<path d="M44.682,37.945c-0.501,0-1.013-0.205-1.381-0.604l-0.941-0.993l2.813-2.598l0.91,0.961
						c0.716,0.768,0.686,1.985-0.082,2.711C45.633,37.771,45.163,37.945,44.682,37.945z"/>
					<path d="M35.792,25.505c0-0.164-0.021-0.317-0.051-0.46l-0.051-1.33l9.483,10.035l-2.813,2.598l-8.439-8.93
						C34.954,27.398,35.792,26.549,35.792,25.505z"/>
					<path d="M35.792,25.505c0,1.043-0.839,1.893-1.872,1.913l-1.473-1.565c-0.726-0.768-0.696-1.975,0.082-2.701
						c0.767-0.727,1.974-0.696,2.7,0.072l0.46,0.491l0.051,1.33C35.772,25.188,35.792,25.342,35.792,25.505z"/>
					<path d="M26.248,24.35h5.606l-0.215-6.107l-7.14-4.941l-3.171,3.366L26.248,24.35z M33.838,27.418h-8.613
						c-0.634,0-1.238-0.317-1.596-0.849l-6.373-9.575c-0.511-0.767-0.409-1.8,0.256-2.435l5.422-5.268
						c0.644-0.624,1.646-0.727,2.394-0.225l9.258,6.148c0.511,0.337,0.829,0.91,0.849,1.524l0.256,6.977l-0.46-0.491
						c-0.726-0.768-1.933-0.798-2.7-0.072c-0.778,0.726-0.808,1.933-0.082,2.701l1.473,1.565c-0.01,0-0.031,0-0.041,0
						S33.849,27.418,33.838,27.418z"/>
					<polygon fill="#FFFFFF" points="31.639,18.243 31.854,24.35 26.248,24.35 21.328,16.667 24.499,13.302 					"/>
				</g>
			</g>
		</g>
	</g>
</g>
<g id="Layer_6" display="none">
	<g display="inline">
		<g>
			<g id="XMLID_5_">
				<g>
					<path d="M82.26,37.84c0,15.445-13.123,27.077-31.206,27.67h-0.411c-2.457,0-5.687-0.669-8.277-1.214
						c-1.329-0.277-2.686-0.564-3.479-0.65c-4.75,6.499-14.079,7.016-16.898,7.016c-1.844,0-4.148,0-4.33-1.854
						c-0.057-0.583,0.191-1.262,0.822-1.663l7.704-10.093c-5.658-5.209-8.755-11.976-8.755-19.211
						c0-15.483,14.537-28.09,32.419-28.09C67.723,9.75,82.26,22.356,82.26,37.84z M50.939,62.05
						C67.082,61.523,78.8,51.345,78.8,37.84c0-13.582-12.988-24.63-28.95-24.63c-15.971,0-28.96,11.049-28.96,24.63
						c0,6.7,3.106,12.97,8.755,17.653c0.717,0.593,0.832,1.644,0.268,2.38l-7.12,9.318c2.819-0.114,10.313-0.908,13.639-6.069
						c0.411-0.64,1.099-0.955,2.055-0.955c1.013,0,2.59,0.324,4.587,0.745c2.438,0.507,5.467,1.138,7.57,1.147L50.939,62.05z"/>
					<path d="M50.471,33.52v15.56c0,0.956-0.956,1.73-1.912,1.73c-0.956,0-1.912-0.774-1.912-1.73V33.52
						c0-0.956,0.956-1.729,1.912-1.729C49.515,31.79,50.471,32.564,50.471,33.52z"/>
					<path d="M50.471,26.609v1.73c0,0.946-0.956,1.721-1.912,1.721c-0.956,0-1.912-0.774-1.912-1.721v-1.73
						c0-0.956,0.956-1.73,1.912-1.73C49.515,24.879,50.471,25.654,50.471,26.609z"/>
					<path fill="#FFFFFF" d="M50.471,33.52c0-0.956-0.956-1.729-1.912-1.729c-0.956,0-1.912,0.774-1.912,1.729v15.56
						c0,0.956,0.956,1.73,1.912,1.73c0.956,0,1.912-0.774,1.912-1.73V33.52z M48.56,30.06c0.956,0,1.912-0.774,1.912-1.721v-1.73
						c0-0.956-0.956-1.73-1.912-1.73c-0.956,0-1.912,0.774-1.912,1.73v1.73C46.648,29.286,47.604,30.06,48.56,30.06z M78.8,37.84
						c0,13.505-11.718,23.684-27.86,24.21l-0.296,0.01c-2.103-0.01-5.132-0.641-7.57-1.147c-1.998-0.421-3.575-0.745-4.587-0.745
						c-0.956,0-1.644,0.315-2.055,0.955c-3.326,5.161-10.819,5.955-13.639,6.069l7.12-9.318c0.564-0.736,0.449-1.787-0.268-2.38
						C23.996,50.81,20.89,44.54,20.89,37.84c0-13.582,12.989-24.63,28.96-24.63C65.812,13.209,78.8,24.258,78.8,37.84z"/>
				</g>
			</g>
		</g>
	</g>
</g>
<g id="Layer_7" display="none">
	<g display="inline">
		<g id="XMLID_6_">
			<g>
				<path fill="#FFFFFF" d="M19,20h63v0.99h-0.18L58.54,40.82c0,0-3.29,2.92-7.33,2.92s-8.01-2.99-8.01-2.99L19.02,20.54H19V20z"/>
				<path fill="#FFFFFF" d="M82,20.99V65H19v-7.09V20.54h0.02L43.2,40.75c0,0,3.97,2.99,8.01,2.99s7.33-2.92,7.33-2.92l23.28-19.83
					H82z"/>
			</g>
			<g>
				<polygon fill="none" stroke="#000000" stroke-width="2" stroke-miterlimit="10" points="82,20.99 82,65 19,65 19,57.91 
					19,20.54 19,20 82,20 				"/>
				<polyline fill="none" stroke="#000000" stroke-width="2" stroke-miterlimit="10" points="39.61,43.44 19,57.91 18.5,58.26 				
					"/>
				<line fill="none" stroke="#000000" stroke-width="2" stroke-miterlimit="10" x1="62.06" y1="42.1" x2="81.82" y2="58.71"/>
				<path fill="none" stroke="#000000" stroke-width="2" stroke-miterlimit="10" d="M19.02,20.54L43.2,40.75
					c0,0,3.97,2.99,8.01,2.99s7.33-2.92,7.33-2.92l23.28-19.83"/>
			</g>
		</g>
	</g>
</g>
<g id="Layer_8" display="none">
	<g display="inline">
		<g>
			<g>
				<g id="XMLID_7_">
					<g>
						<path fill="#FFFFFF" d="M63,64.3v-3.25c0-0.45-0.55-0.81-1-0.81v-1.63c0.45,0,1-0.36,1-0.811v-3.25c0-0.45-0.55-0.81-1-0.81
							v-1.62c0.45,0,1-0.37,1-0.82v-3.24c0-0.45-0.55-0.82-1-0.82v-1.62c0.45,0,1-0.36,1-0.81v-3.25c0-0.45-0.55-0.81-1-0.81v-1.63
							c0.45,0,1-0.36,1-0.81v-3.25c0-0.45-0.55-0.81-1-0.81v-1.63c0.45,0,1-0.36,1-0.81v-3.25c0-0.45-0.55-0.81-1-0.81v-1.62
							c0.45,0,1-0.37,1-0.82v-0.72l13-3.65v40.51l-13.37,3.88c-0.189-0.14-0.42-0.22-0.63-0.22C62.45,65.11,63,64.75,63,64.3z"/>
						<path fill="#FFFFFF" d="M40,22.88c-0.45,0-1,0.36-1,0.81v3.25c0,0.45,0.55,0.81,1,0.81v1.63c-0.45,0-1,0.36-1,0.81v3.25
							c0,0.45,0.55,0.81,1,0.81v1.62c-0.45,0-1,0.37-1,0.82v3.24c0,0.45,0.55,0.82,1,0.82v1.62c-0.45,0-1,0.36-1,0.81v3.25
							c0,0.45,0.55,0.81,1,0.81v1.63c-0.45,0-1,0.36-1,0.81v3.25c0,0.45,0.55,0.811,1,0.811v1.63c-0.45,0-1,0.36-1,0.81v3.25
							c0,0.45,0.55,0.811,1,0.811c-0.45,0-1,0.359-1,0.81v0.09l-16,4.29v-40.5l16.02-4.34c0.11,0.38,0.58,0.66,0.98,0.66V22.88z"/>
						<path fill="#FFFFFF" d="M61.02,65.79l-0.27,0.08L41,61.34v-0.29c0-0.45-0.55-0.81-1-0.81c0.45,0,1-0.36,1-0.811v-3.25
							c0-0.449-0.55-0.81-1-0.81v-1.63c0.45,0,1-0.36,1-0.811v-3.25c0-0.45-0.55-0.81-1-0.81v-1.63c0.45,0,1-0.36,1-0.81v-3.25
							c0-0.45-0.55-0.81-1-0.81v-1.62c0.45,0,1-0.37,1-0.82v-3.24c0-0.45-0.55-0.82-1-0.82v-1.62c0.45,0,1-0.36,1-0.81v-3.25
							c0-0.45-0.55-0.81-1-0.81v-1.63c0.45,0,1-0.36,1-0.81v-3.25c0-0.45-0.55-0.81-1-0.81v-1.63c0.31,0,0.66-0.17,0.85-0.42
							l19.36,4.54L61,25.15v0.16c0,0.45,0.55,0.82,1,0.82v1.62c-0.45,0-1,0.36-1,0.81v3.25c0,0.45,0.55,0.81,1,0.81v1.63
							c-0.45,0-1,0.36-1,0.81v3.25c0,0.45,0.55,0.81,1,0.81v1.63c-0.45,0-1,0.36-1,0.81v3.25c0,0.45,0.55,0.81,1,0.81v1.62
							c-0.45,0-1,0.37-1,0.82v3.24c0,0.45,0.55,0.82,1,0.82v1.62c-0.45,0-1,0.359-1,0.81v3.25c0,0.45,0.55,0.811,1,0.811v1.63
							c-0.45,0-1,0.359-1,0.81v3.25c0,0.45,0.55,0.811,1,0.811C61.6,65.11,61.11,65.41,61.02,65.79z"/>
						<path d="M63,54.55v3.25c0,0.45-0.55,0.811-1,0.811s-1-0.36-1-0.811v-3.25c0-0.45,0.55-0.81,1-0.81S63,54.1,63,54.55z"/>
						<path d="M63,48.06v3.24c0,0.45-0.55,0.82-1,0.82s-1-0.37-1-0.82v-3.24c0-0.45,0.55-0.82,1-0.82S63,47.61,63,48.06z"/>
						<path d="M63,41.56v3.25c0,0.45-0.55,0.81-1,0.81s-1-0.36-1-0.81v-3.25c0-0.45,0.55-0.81,1-0.81S63,41.11,63,41.56z"/>
						<path d="M63,35.06v3.25c0,0.45-0.55,0.81-1,0.81s-1-0.36-1-0.81v-3.25c0-0.45,0.55-0.81,1-0.81S63,34.61,63,35.06z"/>
						<path d="M63,28.56v3.25c0,0.45-0.55,0.81-1,0.81s-1-0.36-1-0.81v-3.25c0-0.45,0.55-0.81,1-0.81S63,28.11,63,28.56z"/>
						<path d="M63,24.59v0.72c0,0.45-0.55,0.82-1,0.82s-1-0.37-1-0.82v-0.16L63,24.59z"/>
						<path d="M62,22.88c0.45,0,1,0.36,1,0.81v0.9l-2,0.56v-1.46c0-0.34,0.31-0.62,0.65-0.75C61.77,22.9,61.89,22.88,62,22.88z"/>
						<path d="M61.65,22.94L61.34,21.8L80,16.69V63.9l-17.49,4.97l-0.16-0.57C62.69,68.17,63,67.89,63,67.55v-1.63
							c0-0.229-0.16-0.45-0.37-0.59L76,61.45V20.94l-13,3.65v-0.9c0-0.45-0.55-0.81-1-0.81C61.89,22.88,61.77,22.9,61.65,22.94z"/>
						<path d="M62,68.36c-0.45,0-1-0.36-1-0.811v-1.63c0-0.04,0.01-0.09,0.02-0.13l1.61-0.46c0.21,0.14,0.37,0.36,0.37,0.59v1.63
							c0,0.34-0.31,0.62-0.65,0.75C62.23,68.34,62.11,68.36,62,68.36z"/>
						<path d="M62.63,65.33l-1.61,0.46c0.091-0.38,0.58-0.68,0.98-0.68C62.21,65.11,62.44,65.19,62.63,65.33z"/>
						<path d="M61,64.3v-3.25c0-0.45,0.55-0.81,1-0.81s1,0.359,1,0.81v3.25c0,0.45-0.55,0.811-1,0.811S61,64.75,61,64.3z"/>
						<path d="M41,18.82c0-0.39-0.42-0.72-0.83-0.79l0.17-0.73l20.19,4.72l0.81-0.22l0.311,1.14C61.31,23.07,61,23.35,61,23.69v1.46
							l-0.79,0.22l-19.36-4.54c0.09-0.11,0.15-0.25,0.15-0.39V18.82z"/>
						<path d="M41,49.68v3.25c0,0.45-0.55,0.811-1,0.811s-1-0.36-1-0.811v-3.25c0-0.45,0.55-0.81,1-0.81S41,49.23,41,49.68z"/>
						<path d="M41,43.18v3.25c0,0.45-0.55,0.81-1,0.81s-1-0.36-1-0.81v-3.25c0-0.45,0.55-0.81,1-0.81S41,42.73,41,43.18z"/>
						<path d="M41,36.69v3.24c0,0.45-0.55,0.82-1,0.82s-1-0.37-1-0.82v-3.24c0-0.45,0.55-0.82,1-0.82S41,36.24,41,36.69z"/>
						<path d="M41,30.19v3.25c0,0.45-0.55,0.81-1,0.81s-1-0.36-1-0.81v-3.25c0-0.45,0.55-0.81,1-0.81S41,29.74,41,30.19z"/>
						<path d="M41,23.69v3.25c0,0.45-0.55,0.81-1,0.81s-1-0.36-1-0.81v-3.25c0-0.45,0.55-0.81,1-0.81S41,23.24,41,23.69z"/>
						<path d="M40.17,18.03c0.41,0.07,0.83,0.4,0.83,0.79v1.62c0,0.14-0.06,0.28-0.15,0.39l-1.46-0.34l-0.37,0.1
							c-0.01-0.05-0.02-0.1-0.02-0.15v-1.62c0-0.45,0.55-0.81,1-0.81C40.06,18.01,40.11,18.02,40.17,18.03z"/>
						<path d="M61,67.55c0,0.45,0.55,0.811,1,0.811c0.11,0,0.23-0.021,0.35-0.061l0.16,0.57l-1.229,0.35L39.7,64.35l0.13-0.88
							c0.06,0.011,0.11,0.021,0.17,0.021c0.45,0,1-0.37,1-0.82v-1.33l19.75,4.53l0.27-0.08C61.01,65.83,61,65.88,61,65.92V67.55z"/>
						<path d="M40.85,20.83c-0.19,0.25-0.54,0.42-0.85,0.42c-0.4,0-0.87-0.28-0.98-0.66l0.37-0.1L40.85,20.83z"/>
						<path d="M39.54,61L39,61.14v-0.09c0-0.45,0.55-0.81,1-0.81s1,0.359,1,0.81v0.29L39.54,61z"/>
						<path d="M20,22.45l19.67-5.31l0.67,0.16l-0.17,0.73c-0.06-0.01-0.11-0.02-0.17-0.02c-0.45,0-1,0.36-1,0.81v1.62
							c0,0.05,0.01,0.1,0.02,0.15L23,24.93v40.5l16-4.29v1.53c0,0.39,0.42,0.73,0.83,0.8l-0.13,0.88L20,69.67V22.45z"/>
						<path d="M39,59.43v-3.25c0-0.449,0.55-0.81,1-0.81s1,0.36,1,0.81v3.25c0,0.45-0.55,0.811-1,0.811S39,59.88,39,59.43z"/>
						<path d="M39.54,61L41,61.34v1.33c0,0.45-0.55,0.82-1,0.82c-0.06,0-0.11-0.01-0.17-0.021C39.42,63.4,39,63.06,39,62.67v-1.53
							L39.54,61z"/>
					</g>
				</g>
			</g>
		</g>
	</g>
</g>
</svg>
