<?xml version="1.0" encoding="utf-8"?>
<!-- Generator: Adobe Illustrator 16.0.0, SVG Export Plug-In . SVG Version: 6.00 Build 0)  -->
<!DOCTYPE svg PUBLIC "-//W3C//DTD SVG 1.1//EN" "http://www.w3.org/Graphics/SVG/1.1/DTD/svg11.dtd">
<svg version="1.1" id="Layer_1" xmlns="http://www.w3.org/2000/svg" xmlns:xlink="http://www.w3.org/1999/xlink" x="0px" y="0px"
	 width="449.667px" height="8.667px" viewBox="0 0 449.667 8.667" enable-background="new 0 0 449.667 8.667" xml:space="preserve">
<g>
	<path fill="#E14D5F" d="M8,4.633c4.516-0.201,9.033-0.341,13.549-0.475c4.517-0.137,9.033-0.295,13.549-0.383
		C44.13,3.554,53.163,3.407,62.196,3.29l13.549-0.152l13.549-0.071c4.517-0.036,9.033-0.036,13.549-0.017
		c4.516-0.006,9.033,0.054,13.549,0.106l27.098,0.533c9.033,0.198,18.065,0.399,27.098,0.486l13.549,0.055l13.549-0.057
		c9.033-0.058,18.065-0.249,27.098-0.396l27.098-0.497c9.033-0.107,18.065-0.263,27.098-0.307l27.098-0.201
		c9.033-0.094,18.065-0.063,27.098-0.081l27.098,0.162l27.098,0.343c9.033,0.116,18.282,0.344,27.314,0.533
		C423.718,3.896,433,4.19,442,4.466v0.734l-5-0.167v-0.4l5-0.167v0.734c-9,0.276-18.282,0.57-27.315,0.737
		c-9.033,0.188-18.173,0.417-27.206,0.533l-27.152,0.343l-27.125,0.161c-9.033-0.018-18.079,0.014-27.112-0.08l-27.104-0.201
		c-9.033-0.044-18.069-0.2-27.102-0.307l-27.1-0.498c-9.033-0.148-18.066-0.338-27.099-0.396l-13.549-0.057l-13.549,0.055
		c-9.033,0.086-18.065,0.288-27.098,0.486l-27.098,0.534c-4.516,0.051-9.033,0.111-13.549,0.105
		c-4.517,0.02-9.033,0.02-13.549-0.017L75.745,6.529L62.196,6.377C53.163,6.26,44.13,6.113,35.098,5.892
		c-4.516-0.088-9.032-0.246-13.549-0.383C17.033,5.375,12.516,5.235,8,5.034V4.633z"/>
</g>
</svg>
