<?xml version="1.0" encoding="utf-8"?>
<!-- Generator: Adobe Illustrator 16.0.0, SVG Export Plug-In . SVG Version: 6.00 Build 0)  -->
<!DOCTYPE svg PUBLIC "-//W3C//DTD SVG 1.1//EN" "http://www.w3.org/Graphics/SVG/1.1/DTD/svg11.dtd">
<svg version="1.1" xmlns="http://www.w3.org/2000/svg" xmlns:xlink="http://www.w3.org/1999/xlink" x="0px" y="0px" width="84px"
	 height="37.5px" viewBox="0 0 84 37.5" enable-background="new 0 0 84 37.5" xml:space="preserve">
<g id="Layer_1" display="none">
	<circle display="inline" fill="#FFFFFF" cx="45.172" cy="18.079" r="28.935"/>
	<g display="inline">
		<g>
			<path d="M45.5,48c-16.681,0-30.25-13.57-30.25-30.25c0-13.713,9.248-25.739,22.487-29.245c2.519-0.667,5.131-1.005,7.763-1.005
				c16.68,0,30.25,13.57,30.25,30.25C75.75,34.43,62.18,48,45.5,48z M45.5-9.87c-2.405,0-4.791,0.309-7.09,0.917
				C26.322-5.751,17.88,5.229,17.88,17.75c0,15.229,12.391,27.62,27.62,27.62c15.229,0,27.62-12.391,27.62-27.62
				S60.729-9.87,45.5-9.87z"/>
		</g>
		<g>
			<polygon points="34.887,15.97 33.263,13.9 45.126,4.607 57.129,12.978 55.623,15.136 45.216,7.876 			"/>
		</g>
		<g>
			<rect x="39.946" y="0.104" transform="matrix(0.0141 0.9999 -0.9999 0.0141 45.8801 -43.6938)" width="10.304" height="2.63"/>
		</g>
		<g>
			<rect x="55.583" y="34.841" transform="matrix(0.9441 0.3296 -0.3296 0.9441 16.3835 -16.5128)" width="2.631" height="10.457"/>
		</g>
		<g>
			<rect x="62.582" y="29.498" transform="matrix(0.0657 0.9978 -0.9978 0.0657 94.4105 -31.2575)" width="2.631" height="10.579"/>
		</g>
		<g>
			<polygon points="38.342,28.981 38.242,26.354 51.409,25.848 55.117,13.673 57.636,14.44 53.379,28.405 			"/>
		</g>
		<g>
			<rect x="50.438" y="29.814" transform="matrix(0.6139 0.7894 -0.7894 0.6139 46.0045 -31.7977)" width="10.138" height="2.63"/>
		</g>
		<g>
			<rect x="29.477" y="19.986" transform="matrix(0.3144 0.9493 -0.9493 0.3144 45.0289 -19.7445)" width="13.413" height="2.631"/>
		</g>
		<g>
			<rect x="17.388" y="6.127" transform="matrix(0.3366 0.9416 -0.9416 0.3366 22.0102 -16.3598)" width="10.458" height="2.63"/>
		</g>
		<g>
			<rect x="19.17" y="10.659" transform="matrix(0.6769 0.7361 -0.7361 0.6769 18.3579 -9.9259)" width="2.63" height="10.577"/>
		</g>
		<g>
			<rect x="24.209" y="12.335" transform="matrix(0.9666 0.2561 -0.2561 0.9666 4.4711 -7.0303)" width="10.033" height="2.631"/>
		</g>
		<g>
			<rect x="64.686" y="10.818" transform="matrix(0.8586 0.5126 -0.5126 0.8586 16.102 -34.1211)" width="10.458" height="2.63"/>
		</g>
		<g>
			<rect x="64.915" y="-1.626" transform="matrix(0.9895 0.1446 -0.1446 0.9895 1.2665 -9.5366)" width="2.63" height="11.138"/>
		</g>
		<g>
			<rect x="59.586" y="6.679" transform="matrix(0.4537 0.8912 -0.8912 0.4537 43.7486 -47.8509)" width="2.631" height="10.153"/>
		</g>
		<g>
			<rect x="21.878" y="33.832" transform="matrix(0.9937 0.1118 -0.1118 0.9937 4.0967 -2.7708)" width="9.758" height="2.63"/>
		</g>
		<g>
			<rect x="28.428" y="39.051" transform="matrix(0.3681 0.9298 -0.9298 0.3681 58.6719 -5.5997)" width="10.056" height="2.629"/>
		</g>
		<g>
			<rect x="33.633" y="26.457" transform="matrix(0.7683 0.6401 -0.6401 0.7683 28.373 -15.0297)" width="2.63" height="10.445"/>
		</g>
	</g>
</g>
<g id="Layer_2" display="none">
	<g display="inline">
		<g id="XMLID_1_">
			<g>
				<path d="M78.27-0.44c2.761,6.81,1.841,15.4-2.38,22.39c-4.58,7.59-27.97,25.29-28.959,26.04l-1.01,0.76l-1.01-0.76
					c-1-0.75-24.38-18.45-28.97-26.04c-4.22-6.99-5.13-15.58-2.38-22.39c2.02-5.02,5.91-8.51,10.93-9.85
					c2.45-0.65,4.79-0.98,6.97-0.98c8,0,12.37,4.39,14.46,7.48c2.08-3.09,6.45-7.48,14.46-7.48c2.18,0,4.521,0.33,6.96,0.98
					C72.37-8.95,76.25-5.46,78.27-0.44z M73.02,20.22C76.65,14.2,77.5,6.58,75.17,0.81c-1.15-2.83-3.59-6.5-8.689-7.86
					c-2.16-0.57-4.221-0.87-6.101-0.87c-9.92,0-12.85,8.1-12.88,8.18l-1.58,4.56l-1.59-4.56c-0.11-0.32-3.03-8.18-12.87-8.18
					c-1.89,0-3.94,0.3-6.11,0.87c-5.1,1.36-7.54,5.03-8.68,7.86c-2.33,5.77-1.49,13.39,2.14,19.41c3.75,6.2,22.52,20.81,27.11,24.32
					C50.5,41.03,69.28,26.42,73.02,20.22z"/>
				<path fill="#FFFFFF" d="M75.17,0.81c2.33,5.77,1.48,13.39-2.15,19.41c-3.739,6.2-22.52,20.81-27.1,24.32
					c-4.59-3.51-23.36-18.12-27.11-24.32c-3.63-6.02-4.47-13.64-2.14-19.41c1.14-2.83,3.58-6.5,8.68-7.86
					c2.17-0.57,4.22-0.87,6.11-0.87c9.84,0,12.76,7.86,12.87,8.18l1.59,4.56l1.58-4.56c0.03-0.08,2.96-8.18,12.88-8.18
					c1.88,0,3.94,0.3,6.101,0.87C71.58-5.69,74.02-2.02,75.17,0.81z"/>
			</g>
		</g>
	</g>
</g>
<g id="Layer_3" display="none">
	<g display="inline">
		<g>
			<g id="XMLID_2_">
				<g>
					<path d="M63.84,28.94c1.36,0.37,3.92,2.12,3.83,6.1c-0.04,2.2-1.51,4-2.5,4.97c-0.58-0.64-1.29-1.16-2.16-1.479
						C62.28,38.26,60.16,38.1,55.54,38h7.47c0.76,0,2-1.87,2.021-3.24c0.06-2.47-1.3-3.14-1.761-3.34l-3.25-0.01
						c0.221-0.311,0.36-0.7,0.391-1.03c0.01-0.07,0.05-0.64,0.04-1.51l3.05,0.02C63.62,28.89,63.73,28.91,63.84,28.94z"/>
					<path d="M65.67,4.83c0.12,0.24,1.78,3.68-1.9,6.95c-1.149,1.03-2.51,1.57-3.909,1.57c-0.681,0-1.271-0.13-1.7-0.27
						c-0.42-0.14-0.7-0.28-0.75-0.31c-1.7-0.89-3.891-1.86-4.73-2.06c-0.54,0.37-1.109,0.65-1.66,0.86
						c1.851,1.45,4.421,3.71,6.4,6.42c2.6,3.56,3.01,8.44,3.03,10.88l-29.57-0.15c0.48-1.56,0.95-3.79,0.67-4.83
						c-0.04-0.09-0.14-0.31-0.27-0.57c-0.88-1.8-3.22-6.58-3.29-13.98c-0.08-9,5.24-12.03,8.76-14.03c1.49-0.85,2.77-1.58,2.8-2.3
						c0.17-5.95,8.181-7.93,8.521-8.01c0.42-0.1,0.85,0,1.18,0.28c0.32,0.28,0.48,0.7,0.44,1.13l-0.58,5.91
						c0.59,0.06,1.34,0.14,2.18,0.27C58.77-6.32,65.39,4.37,65.67,4.83z M62.01,9.81c2.19-1.95,1.36-3.69,1.351-3.7
						C63.35,6.1,57.17-3.89,50.91-4.8C49.02-5.08,47.62-5.15,47.6-5.15c-0.359-0.02-0.7-0.18-0.93-0.45c-0.24-0.28-0.35-0.64-0.32-1
						l0.52-5.22c-1.9,0.78-4.61,2.34-4.69,4.91c-0.06,2.2-2.04,3.32-4.13,4.51c-3.33,1.89-7.49,4.25-7.42,11.7
						c0.06,6.8,2.14,11.02,3.02,12.83c0.23,0.47,0.37,0.75,0.45,1.02c0.41,1.53-0.02,3.78-0.44,5.35l24.149,0.05
						c-0.02-2-0.369-6.05-2.529-9.01c-3.101-4.24-8.01-7.44-8.06-7.47c-0.48-0.31-0.7-0.9-0.56-1.45c0.15-0.55,0.63-0.95,1.21-0.98
						c0.01,0,2.05-0.14,3.56-1.27c0.29-0.22,0.641-0.33,1.051-0.33c1.409,0,4.789,1.69,6.18,2.41c0.02,0.01,0.51,0.26,1.2,0.26
						C60.62,10.71,61.34,10.41,62.01,9.81z"/>
					<path fill="#FFFFFF" d="M63.27,31.42c0.461,0.2,1.82,0.87,1.761,3.34C65.01,36.13,63.77,38,63.01,38h-7.47
						c-1.81-0.05-4-0.08-6.65-0.1c-1.109-0.021-1.959-0.021-2.34-0.03c-0.08-0.021-0.18-0.04-0.26-0.03
						c-0.4,0-6.79,0.021-11.73,0.16h-5.28c-0.59,0-2.23-1.22-2.23-3.24c0-2.02,1.78-3.069,2.42-3.46l1.83,0.01
						c0.18,0.131,0.38,0.23,0.58,0.23L59.09,32h0.01c0.351,0,0.681-0.25,0.92-0.59L63.27,31.42z"/>
					<path fill="#FFFFFF" d="M63.36,6.11c0.01,0.01,0.84,1.75-1.351,3.7c-0.67,0.6-1.39,0.9-2.149,0.9c-0.69,0-1.181-0.25-1.2-0.26
						c-1.391-0.72-4.771-2.41-6.18-2.41c-0.41,0-0.761,0.11-1.051,0.33c-1.51,1.13-3.55,1.27-3.56,1.27
						c-0.58,0.03-1.06,0.43-1.21,0.98c-0.14,0.55,0.08,1.14,0.56,1.45c0.05,0.03,4.959,3.23,8.06,7.47
						c2.16,2.96,2.51,7.01,2.529,9.01L33.66,28.5c0.42-1.57,0.85-3.82,0.44-5.35c-0.08-0.27-0.22-0.55-0.45-1.02
						c-0.88-1.81-2.96-6.03-3.02-12.83c-0.07-7.45,4.09-9.81,7.42-11.7c2.09-1.19,4.07-2.31,4.13-4.51
						c0.08-2.57,2.79-4.13,4.69-4.91L46.35-6.6c-0.03,0.36,0.08,0.72,0.32,1c0.23,0.27,0.57,0.43,0.93,0.45
						c0.021,0,1.42,0.07,3.311,0.35C57.17-3.89,63.35,6.1,63.36,6.11z"/>
					<path d="M60.45,28.87c0.01,0.87-0.03,1.439-0.04,1.51c-0.03,0.33-0.17,0.72-0.391,1.03L31.3,31.31
						c-0.19-0.149-0.36-0.35-0.49-0.529c-0.25-0.351-0.31-0.9-0.17-1.3c0.08-0.23,0.16-0.48,0.24-0.76L60.45,28.87z"/>
					<path d="M60.02,31.41C59.78,31.75,59.45,32,59.1,32h-0.01l-27.21-0.46c-0.2,0-0.4-0.1-0.58-0.23L60.02,31.41z"/>
					<path d="M29.28,38h5.28c-2.42,0.07-4.49,0.17-5.35,0.3c-1.15,0.181-2.07,0.62-2.81,1.22c-1-0.949-1.99-2.42-1.99-4.529
						c0-4.141,3.99-6.08,4.16-6.16c0.18-0.08,0.39-0.11,0.58-0.12l1.73,0.01c-0.08,0.28-0.16,0.53-0.24,0.76
						c-0.14,0.399-0.08,0.949,0.17,1.3c0.13,0.18,0.3,0.38,0.49,0.529l-1.83-0.01c-0.64,0.391-2.42,1.44-2.42,3.46
						C27.05,36.78,28.69,38,29.28,38z"/>
				</g>
			</g>
		</g>
	</g>
</g>
<g id="Layer_4" display="none">
	<g display="inline">
		<g>
			<g id="XMLID_3_">
				<g>
					<path d="M79.49-4c1.05,0,1.899,0.95,1.899,2s-0.85,2-1.899,2H26.36c-1.05,0-1.9-0.95-1.9-2s0.85-2,1.9-2H79.49z"/>
					<path d="M79.49,21c1.05,0,1.899,0.95,1.899,2s-0.85,2-1.899,2H26.36c-1.05,0-1.9-0.95-1.9-2s0.85-2,1.9-2H79.49z"/>
					<path d="M15.44-9.73c3.14,0,5.7,2.56,5.7,5.69c0,3.14-2.56,5.7-5.7,5.7S9.75-0.9,9.75-4.04C9.75-7.17,12.3-9.73,15.44-9.73z
						 M17.34-4.04c0-1.04-0.85-1.89-1.9-1.89c-1.04,0-1.89,0.85-1.89,1.89c0,1.05,0.85,1.9,1.89,1.9
						C16.49-2.14,17.34-2.99,17.34-4.04z"/>
					<path d="M15.44,14.94c3.14,0,5.7,2.56,5.7,5.7c0,3.14-2.56,5.69-5.7,5.69s-5.69-2.55-5.69-5.69
						C9.75,17.5,12.3,14.94,15.44,14.94z M17.34,20.64c0-1.05-0.85-1.9-1.9-1.9c-1.04,0-1.89,0.85-1.89,1.9
						c0,1.04,0.85,1.89,1.89,1.89C16.49,22.53,17.34,21.68,17.34,20.64z"/>
					<path fill="#FFFFFF" d="M15.44,18.74c1.05,0,1.9,0.85,1.9,1.9c0,1.04-0.85,1.89-1.9,1.89c-1.04,0-1.89-0.85-1.89-1.89
						C13.55,19.59,14.4,18.74,15.44,18.74z"/>
				</g>
			</g>
		</g>
	</g>
</g>
<g id="Layer_5" display="none">
	<g display="inline">
		<g>
			<g id="XMLID_4_">
				<g>
					<path d="M77.384,35.084c2.312,2.578,5.248,8.695-0.112,13.748c-1.913,1.801-4.103,2.619-6.496,2.619
						c-4.184,0-7.437-2.782-7.58-2.905L45.202,30.9l10.966-10.966c0.849,0.164,2.138,0.368,3.652,0.481L77.18,34.879
						C77.261,34.94,77.322,35.013,77.384,35.084z M74.643,46.132c3.754-3.529,0.552-7.713-0.031-8.408L55.063,21.438l-6.741,7.211
						l17.492,17.186c0.01,0,2.291,1.964,4.961,1.964C72.188,47.799,73.456,47.257,74.643,46.132z"/>
					<path d="M76.054-3.461c0.052,0.103,5.657,10.936-4.163,20.756c-2.128,2.118-5.452,3.202-9.882,3.202
						c-0.757,0-1.493-0.031-2.188-0.082l-3.693-3.079c-0.777-0.655-1.934-0.583-2.619,0.153l-0.153-0.153l0.839-0.839
						c0.471-0.471,1.156-0.655,1.801-0.501c0.03,0,2.833,0.665,6.015,0.665c2.322,0,5.452-0.358,7.171-2.077
						c5.104-5.104,5.063-10.414,4.398-13.523l-8.347,8.859c-0.686,0.726-1.811,0.808-2.588,0.174L54.664,3.72
						c-0.409-0.337-0.675-0.818-0.716-1.35s0.144-1.054,0.501-1.442l8.47-9.237c-0.808-0.164-1.759-0.286-2.803-0.286
						c-3.601,0-6.7,1.391-9.227,4.143c-4.061,4.409-1.238,12.316-1.207,12.398c0.266,0.726,0.071,1.534-0.501,2.066l-6.292,5.831
						l-0.389-0.419c0.767-0.726,0.798-1.943,0.082-2.711l-0.91-0.961l4.03-3.734c-0.788-2.895-2.138-10.168,2.363-15.068
						c3.242-3.509,7.406-5.371,12.05-5.371c3.979,0,6.956,1.371,7.079,1.422c0.553,0.266,0.951,0.768,1.074,1.371
						c0.112,0.593-0.062,1.207-0.471,1.657l-9.146,9.984l5.003,4l9.318-9.882c0.42-0.45,1.033-0.675,1.647-0.593
						C75.226-4.381,75.758-4.003,76.054-3.461z"/>
					<path fill="#FFFFFF" d="M74.611,37.724c0.583,0.695,3.785,4.879,0.031,8.408c-1.187,1.125-2.455,1.667-3.867,1.667
						c-2.67,0-4.951-1.964-4.961-1.964L48.322,28.649l6.741-7.211L74.611,37.724z"/>
					<path fill="#FFFFFF" d="M73.578,1.061c0.665,3.11,0.706,8.419-4.398,13.523c-1.719,1.719-4.849,2.077-7.171,2.077
						c-3.182,0-5.984-0.665-6.015-0.665c-0.645-0.153-1.33,0.031-1.801,0.501l-0.839,0.839l-28.11,28.11
						c-0.184,0.021-0.43,0.041-0.716,0.041c-1.647,0-3.059-0.686-4.205-2.066c-1.964-2.353-1.166-5.063-0.829-5.933L42.89,15.842
						l6.292-5.831c0.572-0.532,0.767-1.34,0.501-2.066c-0.031-0.082-2.854-7.989,1.207-12.398c2.526-2.751,5.626-4.143,9.227-4.143
						c1.044,0,1.995,0.123,2.803,0.286l-8.47,9.237c-0.357,0.389-0.542,0.911-0.501,1.442s0.307,1.013,0.716,1.35l7.979,6.373
						c0.777,0.634,1.902,0.552,2.588-0.174L73.578,1.061z"/>
					<path d="M56.127,17.336l3.693,3.079c-1.515-0.113-2.804-0.317-3.652-0.481L45.202,30.9l-0.89-0.88
						c-0.736-0.727-0.767-1.893-0.062-2.649l9.257-9.882C54.193,16.753,55.35,16.681,56.127,17.336z"/>
					<path d="M53.508,17.489l-9.257,9.882c-0.706,0.757-0.675,1.923,0.062,2.649l0.89,0.88L27.546,48.557
						c-0.225,0.225-0.491,0.389-0.788,0.48c-0.164,0.041-1.002,0.286-2.23,0.286c-2.752,0-5.289-1.228-7.14-3.447
						c-3.949-4.736-1.32-10.147-1.208-10.373c0.113-0.204,0.246-0.398,0.419-0.552l22.26-20.603l0.941,0.993
						c0.368,0.399,0.88,0.604,1.381,0.604c0.481,0,0.952-0.174,1.32-0.522l0.389,0.419L19.495,37.488
						c-0.337,0.869-1.135,3.58,0.829,5.933c1.146,1.381,2.558,2.066,4.205,2.066c0.286,0,0.532-0.021,0.716-0.041l28.11-28.11
						L53.508,17.489z"/>
					<path d="M42.583,12.712c0.716,0.768,0.686,1.985-0.082,2.711c-0.368,0.348-0.839,0.522-1.32,0.522
						c-0.501,0-1.013-0.205-1.381-0.604l-0.941-0.993l2.813-2.598L42.583,12.712z"/>
					<path d="M32.19,1.715l9.483,10.035l-2.813,2.598l-8.439-8.93c1.033-0.021,1.872-0.87,1.872-1.913
						c0-0.164-0.021-0.317-0.051-0.46L32.19,1.715z"/>
					<path d="M32.241,3.045c0.031,0.143,0.051,0.296,0.051,0.46c0,1.043-0.839,1.893-1.872,1.913l-1.473-1.565
						c-0.726-0.768-0.696-1.975,0.082-2.701c0.767-0.727,1.974-0.696,2.7,0.072l0.46,0.491L32.241,3.045z"/>
					<path d="M31.934-5.261l0.256,6.977l-0.46-0.491c-0.726-0.768-1.933-0.798-2.7-0.072c-0.778,0.726-0.808,1.933-0.082,2.701
						l1.473,1.565c-0.01,0-0.031,0-0.041,0s-0.031,0-0.041,0h-8.613c-0.634,0-1.238-0.317-1.596-0.849l-6.373-9.575
						c-0.511-0.767-0.409-1.8,0.256-2.435l5.422-5.268c0.644-0.624,1.646-0.727,2.394-0.225l9.258,6.148
						C31.597-6.448,31.914-5.875,31.934-5.261z M28.354,2.35l-0.215-6.107l-7.14-4.941l-3.171,3.366l4.92,7.682H28.354z"/>
					<polygon fill="#FFFFFF" points="28.139,-3.757 28.354,2.35 22.748,2.35 17.828,-5.333 20.999,-8.698 					"/>
				</g>
			</g>
		</g>
	</g>
</g>
<g id="Layer_6" display="none">
	<g display="inline">
		<g>
			<g id="XMLID_5_">
				<g>
					<path d="M78.76,15.84c0,15.445-13.123,27.077-31.206,27.67h-0.411c-2.457,0-5.687-0.669-8.277-1.214
						c-1.329-0.277-2.686-0.564-3.479-0.65c-4.75,6.499-14.079,7.016-16.898,7.016c-1.844,0-4.148,0-4.33-1.854
						c-0.057-0.583,0.191-1.262,0.822-1.663l7.704-10.093c-5.658-5.209-8.755-11.976-8.755-19.211
						c0-15.483,14.537-28.09,32.419-28.09C64.223-12.25,78.76,0.356,78.76,15.84z M47.439,40.05
						C63.582,39.523,75.3,29.345,75.3,15.84c0-13.582-12.988-24.63-28.95-24.63c-15.971,0-28.96,11.049-28.96,24.63
						c0,6.7,3.106,12.97,8.755,17.653c0.717,0.593,0.832,1.644,0.268,2.38l-7.12,9.318c2.819-0.114,10.313-0.908,13.639-6.069
						c0.411-0.64,1.099-0.955,2.055-0.955c1.013,0,2.59,0.324,4.587,0.745c2.438,0.507,5.467,1.138,7.57,1.147L47.439,40.05z"/>
					<path fill="#FFFFFF" d="M75.3,15.84c0,13.505-11.718,23.684-27.86,24.21l-0.296,0.01c-2.103-0.01-5.132-0.641-7.57-1.147
						c-1.998-0.421-3.575-0.745-4.587-0.745c-0.956,0-1.644,0.315-2.055,0.955c-3.326,5.161-10.819,5.955-13.639,6.069l7.12-9.318
						c0.564-0.736,0.449-1.787-0.268-2.38C20.496,28.81,17.39,22.54,17.39,15.84c0-13.582,12.989-24.63,28.96-24.63
						C62.312-8.791,75.3,2.258,75.3,15.84z M46.971,27.08V11.52c0-0.956-0.956-1.729-1.912-1.729c-0.956,0-1.912,0.774-1.912,1.729
						v15.56c0,0.956,0.956,1.73,1.912,1.73C46.015,28.81,46.971,28.036,46.971,27.08z M46.971,6.339v-1.73
						c0-0.956-0.956-1.73-1.912-1.73c-0.956,0-1.912,0.774-1.912,1.73v1.73c0,0.946,0.956,1.721,1.912,1.721
						C46.015,8.06,46.971,7.286,46.971,6.339z"/>
					<path d="M46.971,11.52v15.56c0,0.956-0.956,1.73-1.912,1.73c-0.956,0-1.912-0.774-1.912-1.73V11.52
						c0-0.956,0.956-1.729,1.912-1.729C46.015,9.79,46.971,10.564,46.971,11.52z"/>
					<path d="M46.971,4.609v1.73c0,0.946-0.956,1.721-1.912,1.721c-0.956,0-1.912-0.774-1.912-1.721v-1.73
						c0-0.956,0.956-1.73,1.912-1.73C46.015,2.879,46.971,3.654,46.971,4.609z"/>
				</g>
			</g>
		</g>
	</g>
</g>
<g id="Layer_7">
	<g>
		<g id="XMLID_6_">
			<g>
				<path fill="#FFFFFF" d="M3.789,29.403V7.812H3.8l13.971,11.677c0,0,2.294,1.728,4.628,1.728c2.334,0,4.235-1.687,4.235-1.687
					L40.085,8.072h0.104V33.5h-36.4V29.403z"/>
				<path fill="#FFFFFF" d="M40.189,7.5v0.572h-0.104L26.634,19.529c0,0-1.901,1.687-4.235,1.687c-2.334,0-4.628-1.728-4.628-1.728
					L3.8,7.812H3.789V7.5H40.189z"/>
			</g>
			<g>
				<polygon fill="none" stroke="#000000" stroke-width="2" stroke-miterlimit="10" points="40.189,8.072 40.189,33.5 3.789,33.5 
					3.789,29.403 3.789,7.812 3.789,7.5 40.189,7.5 				"/>
				<polyline fill="none" stroke="#000000" stroke-width="2" stroke-miterlimit="10" points="15.697,21.043 3.789,29.403 
					3.5,29.605 				"/>
				<line fill="none" stroke="#000000" stroke-width="2" stroke-miterlimit="10" x1="28.668" y1="20.269" x2="40.085" y2="29.866"/>
				<path fill="none" stroke="#000000" stroke-width="2" stroke-miterlimit="10" d="M3.8,7.812l13.971,11.677
					c0,0,2.294,1.728,4.628,1.728c2.334,0,4.235-1.687,4.235-1.687L40.085,8.072"/>
			</g>
		</g>
	</g>
	
		<line fill="none" stroke="#000000" stroke-width="2" stroke-linecap="round" stroke-miterlimit="10" x1="43.5" y1="13" x2="59.5" y2="13"/>
	
		<line fill="none" stroke="#000000" stroke-width="2" stroke-linecap="round" stroke-miterlimit="10" x1="43.5" y1="22" x2="67.5" y2="22"/>
	
		<line fill="none" stroke="#000000" stroke-width="2" stroke-linecap="round" stroke-miterlimit="10" x1="43.5" y1="31" x2="79.5" y2="31"/>
</g>
<g id="Layer_8" display="none">
	<g display="inline">
		<g>
			<g>
				<g id="XMLID_7_">
					<g>
						<path d="M76.5-5.31V41.9l-17.49,4.97l-0.16-0.57c0.341-0.13,0.65-0.41,0.65-0.75v-1.63c0-0.229-0.16-0.45-0.37-0.59
							l13.37-3.88V-1.06l-13,3.65v-0.9c0-0.45-0.55-0.81-1-0.81c-0.11,0-0.23,0.02-0.35,0.06L57.84-0.2L76.5-5.31z"/>
						<path fill="#FFFFFF" d="M72.5-1.06v40.51l-13.37,3.88c-0.189-0.14-0.42-0.22-0.63-0.22c0.45,0,1-0.36,1-0.811v-3.25
							c0-0.45-0.55-0.81-1-0.81v-1.63c0.45,0,1-0.36,1-0.811v-3.25c0-0.45-0.55-0.81-1-0.81v-1.62c0.45,0,1-0.37,1-0.82v-3.24
							c0-0.45-0.55-0.82-1-0.82v-1.62c0.45,0,1-0.36,1-0.81v-3.25c0-0.45-0.55-0.81-1-0.81v-1.63c0.45,0,1-0.36,1-0.81v-3.25
							c0-0.45-0.55-0.81-1-0.81v-1.63c0.45,0,1-0.36,1-0.81V6.56c0-0.45-0.55-0.81-1-0.81V4.13c0.45,0,1-0.37,1-0.82V2.59L72.5-1.06
							z"/>
						<path d="M59.5,32.55v3.25c0,0.45-0.55,0.811-1,0.811s-1-0.36-1-0.811v-3.25c0-0.45,0.55-0.81,1-0.81S59.5,32.1,59.5,32.55z"/>
						<path d="M59.5,26.06v3.24c0,0.45-0.55,0.82-1,0.82s-1-0.37-1-0.82v-3.24c0-0.45,0.55-0.82,1-0.82S59.5,25.61,59.5,26.06z"/>
						<path d="M59.5,19.56v3.25c0,0.45-0.55,0.81-1,0.81s-1-0.36-1-0.81v-3.25c0-0.45,0.55-0.81,1-0.81S59.5,19.11,59.5,19.56z"/>
						<path d="M59.5,13.06v3.25c0,0.45-0.55,0.81-1,0.81s-1-0.36-1-0.81v-3.25c0-0.45,0.55-0.81,1-0.81S59.5,12.61,59.5,13.06z"/>
						<path d="M59.5,6.56v3.25c0,0.45-0.55,0.81-1,0.81s-1-0.36-1-0.81V6.56c0-0.45,0.55-0.81,1-0.81S59.5,6.11,59.5,6.56z"/>
						<path d="M59.5,2.59v0.72c0,0.45-0.55,0.82-1,0.82s-1-0.37-1-0.82V3.15L59.5,2.59z"/>
						<path d="M59.5,1.69v0.9l-2,0.56V1.69c0-0.34,0.31-0.62,0.65-0.75C58.27,0.9,58.39,0.88,58.5,0.88
							C58.95,0.88,59.5,1.24,59.5,1.69z"/>
						<path fill="#FFFFFF" d="M58.5,36.61v1.63c-0.45,0-1,0.359-1,0.81v3.25c0,0.45,0.55,0.811,1,0.811c-0.4,0-0.89,0.3-0.98,0.68
							l-0.27,0.08L37.5,39.34v-0.29c0-0.45-0.55-0.81-1-0.81c0.45,0,1-0.36,1-0.811v-3.25c0-0.449-0.55-0.81-1-0.81v-1.63
							c0.45,0,1-0.36,1-0.811v-3.25c0-0.45-0.55-0.81-1-0.81v-1.63c0.45,0,1-0.36,1-0.81v-3.25c0-0.45-0.55-0.81-1-0.81v-1.62
							c0.45,0,1-0.37,1-0.82v-3.24c0-0.45-0.55-0.82-1-0.82v-1.62c0.45,0,1-0.36,1-0.81V8.19c0-0.45-0.55-0.81-1-0.81V5.75
							c0.45,0,1-0.36,1-0.81V1.69c0-0.45-0.55-0.81-1-0.81v-1.63c0.31,0,0.66-0.17,0.85-0.42l19.36,4.54l0.79-0.22v0.16
							c0,0.45,0.55,0.82,1,0.82v1.62c-0.45,0-1,0.36-1,0.81v3.25c0,0.45,0.55,0.81,1,0.81v1.63c-0.45,0-1,0.36-1,0.81v3.25
							c0,0.45,0.55,0.81,1,0.81v1.63c-0.45,0-1,0.36-1,0.81v3.25c0,0.45,0.55,0.81,1,0.81v1.62c-0.45,0-1,0.37-1,0.82v3.24
							c0,0.45,0.55,0.82,1,0.82v1.62c-0.45,0-1,0.359-1,0.81v3.25C57.5,36.25,58.05,36.61,58.5,36.61z"/>
						<path d="M57.84-0.2l0.311,1.14C57.81,1.07,57.5,1.35,57.5,1.69v1.46l-0.79,0.22L37.35-1.17c0.09-0.11,0.15-0.25,0.15-0.39
							v-1.62c0-0.39-0.42-0.72-0.83-0.79l0.17-0.73l20.19,4.72L57.84-0.2z"/>
						<path d="M37.5,34.18v3.25c0,0.45-0.55,0.811-1,0.811s-1-0.36-1-0.811v-3.25c0-0.449,0.55-0.81,1-0.81S37.5,33.73,37.5,34.18z"
							/>
						<path d="M37.5,27.68v3.25c0,0.45-0.55,0.811-1,0.811s-1-0.36-1-0.811v-3.25c0-0.45,0.55-0.81,1-0.81S37.5,27.23,37.5,27.68z"
							/>
						<path d="M37.5,21.18v3.25c0,0.45-0.55,0.81-1,0.81s-1-0.36-1-0.81v-3.25c0-0.45,0.55-0.81,1-0.81S37.5,20.73,37.5,21.18z"/>
						<path d="M37.5,14.69v3.24c0,0.45-0.55,0.82-1,0.82s-1-0.37-1-0.82v-3.24c0-0.45,0.55-0.82,1-0.82S37.5,14.24,37.5,14.69z"/>
						<path d="M37.5,8.19v3.25c0,0.45-0.55,0.81-1,0.81s-1-0.36-1-0.81V8.19c0-0.45,0.55-0.81,1-0.81S37.5,7.74,37.5,8.19z"/>
						<path d="M37.5,1.69v3.25c0,0.45-0.55,0.81-1,0.81s-1-0.36-1-0.81V1.69c0-0.45,0.55-0.81,1-0.81S37.5,1.24,37.5,1.69z"/>
						<path d="M36.84-4.7l-0.17,0.73c-0.06-0.01-0.11-0.02-0.17-0.02c-0.45,0-1,0.36-1,0.81v1.62c0,0.05,0.01,0.1,0.02,0.15
							L19.5,2.93v40.5l16-4.29v1.53c0,0.39,0.42,0.73,0.83,0.8l-0.13,0.88l-19.7,5.32V0.45l19.67-5.31L36.84-4.7z"/>
						<path fill="#FFFFFF" d="M36.5,31.74v1.63c-0.45,0-1,0.36-1,0.81v3.25c0,0.45,0.55,0.811,1,0.811c-0.45,0-1,0.359-1,0.81v0.09
							l-16,4.29V2.93l16.02-4.34c0.11,0.38,0.58,0.66,0.98,0.66v1.63c-0.45,0-1,0.36-1,0.81v3.25c0,0.45,0.55,0.81,1,0.81v1.63
							c-0.45,0-1,0.36-1,0.81v3.25c0,0.45,0.55,0.81,1,0.81v1.62c-0.45,0-1,0.37-1,0.82v3.24c0,0.45,0.55,0.82,1,0.82v1.62
							c-0.45,0-1,0.36-1,0.81v3.25c0,0.45,0.55,0.81,1,0.81v1.63c-0.45,0-1,0.36-1,0.81v3.25C35.5,31.38,36.05,31.74,36.5,31.74z"/>
					</g>
				</g>
			</g>
		</g>
	</g>
</g>
</svg>
